<mxfile host="Electron" modified="2024-02-07T09:54:46.328Z" agent="Mozilla/5.0 (Windows NT 10.0; Win64; x64) AppleWebKit/537.36 (KHTML, like Gecko) draw.io/21.6.1 Chrome/112.0.5615.204 Electron/24.6.1 Safari/537.36" etag="wbxq4IgTfgzy1sTUg7rk" version="21.6.1" type="device">
  <diagram name="Page-1" id="00W2r9lrgi2Sn9ghKAKL">
    <mxGraphModel dx="1750" dy="1035" grid="1" gridSize="10" guides="1" tooltips="1" connect="1" arrows="1" fold="1" page="1" pageScale="1" pageWidth="850" pageHeight="1100" math="0" shadow="0">
      <root>
        <mxCell id="0" />
        <mxCell id="1" parent="0" />
        <mxCell id="Bwvvb87Q9qxr3h32M2CW-2" value="" style="shape=image;verticalLabelPosition=bottom;labelBackgroundColor=default;verticalAlign=top;aspect=fixed;imageAspect=0;image=data:image/png,iVBORw0KGgoAAAANSUhEUgAAAO4AAABhCAYAAADRCJ0vAAAAAXNSR0IArs4c6QAAAARnQU1BAACxjwv8YQUAAAAJcEhZcwAAEnQAABJ0Ad5mH3gAAA2GSURBVHhe7Z1dbBzVFcfPpkhNWtKmEhCkNqhIuzxYadPwVXU2fUFC7a4lMJBuAi/uQ7UGpOJVhcWHDAixAqpI1W5RqbxPtVRovA3BD/WuEFLfvEjlW1h5yG6hKqgJUiWoEpUUcLbn3LnjnRnv7MyOd2xf+P/g4rn3zsyd+/G/59w7NpPqMgQAMIod+icAwCAgXAAMBMIFwEAgXAAMBMIFwEAgXAAMBMIFwEAgXAAMBMIFwEAgXAAMBMIFwEAgXAAMBMIFwEAgXAAMBMIFwEAgXAAMJNYf0p9YWKA33nxNxwZz+GdH6NrrrtcxAMAoiCXchx+cocefeFLHgnnskYfVT4gXgNGSuKs8cfthOvFnttCvR7PQAIBwEhfuwYPXQrwAjJhN2ZyCeAEYLUOtce85+Ws6/uZLOtafIwdupmduvV8dv3jyBL315hvq2M2TTx/TRwCAOAxlccNEKyy8/bI+IrqNraxsYrlDFDrVLKWmmjrmpTmVomy1o2NuOlTNpiiVrfJRMOreKT5vLUyRuyS5vyc/4Dmi4n9e+/7eMrcGu72iVS+pc0FcYrnK91h30EdP/JXuOvhTumrPler4wZsmde4W0VmiOllkteq01Fe59oDKlPZTg50McTRUaBAtqkFm5+ep0cvj0Bg7zTmjIzcn952jnI5vBfbkkaFSSycMIKlzwcaIJdzft16glbN/V2J99o4H6P2PP1Rpfm57+1n60d+eUuGJd/+iU5OheaxEVJin2WKLSsfWT/ed6iSVqEJtv2hyczQnCSL8lkWVGa+kctPTlNbHXwiaU5SvFXnyalBRJwWS1Llgw8TenHqo8Tvat2cvZb97QB3/58J5ndPj6N4b6OSBe+ng7quo8e93dGoSNGmxZlFhPE25mQpZtUWfK9qkY2wGirMDRJi+hvZTi061dXxI/C54kKvYz3WWuOd6v7vPoujdO0t9VwoaZfV8hat7O/fkiSqyxU/qXCawvfrUNbROX0IS31UWS3t+9YKOJURzkWpWgVi3LMBxKlg17f5qJJ/twMTAUZWjmYpFtXzQGjoYGUQeF7xdoTGdF4VWKUOTNG9f222zX1CijDNQO1XK5leo0tb3bhTs9AByE2zvVtzufYeW6iGT1iYT2F4BdTWhTptNLOF+c+el9OztD9DyP95WQY4lzc3C2Vfp+Iev0vjl36NffPvHOnUIannXzNsL+ZrOd9FcrJFVGNedmKbxAgvQo9xopKeX1SAiFpKUFU3A2po3XNYmPU3TUU2PUGzQ8rQzBNM0PS9eQ9llWffTNU52ju89aLTmJqjoXuerJUDYpLWZhLVXn7pu+zptPrGEK2tbcZPFRZbwjZ1fX7c5dfq/H9Lur3yVxi/7Pr1x7p86dQh4MNsWyBsa/gUUz9Jl7SY7pMcLvoE/BDyIlqUsLkgsYeiuciRrPhhrLKOPNMpt12gPIs8TSdij2ORogtf5dT3KO0t1ahUnIruwiTOovQLrus3rtAXEEq6I9VuP3ETvnOmoIMeS5ubolTfQudX/0c2v/4YuZQEnhepE/qeUcVnmTEmlOR1NmTGyaIVODyNkWbOx9Y09AYwMtsDLPJHws6ywGx/lVZK4lq36EjuU2qU0xjQF19XcOiXDUMI9evAn+igY+QUMIfO1vfTigXvp5et+pVzlV258SKWPFrsTrUp7nWVu83rV7mhGzeT9d5sHEmXDKs6k4KPlL0BZJZfLKChPgNe/bJHKYTOJ41o2t6FLGaW9+tV1O9dpK+BBPjQPPXB/99NPP40V5NowWHRddpV1zAt7sF0Wqh1pV7oWWV0n6kHlUbd3m0aXvewuq7zrOb1RtM+R831lquegIl85GHkmz3l8r4qOeJ6X6ReXbvA/59o5zvMp2l2ej1zxYFQ5luUpy4tdjudege052nMD2yukruF1+vKQ+K5yksi725azm+xHWVlybVLlaM7ZsXVcagnlMVKvbsW6+jbE7J3P8Fcc8ksVjaK9NlPXZupsWXRmBKxKg8bKTrl5qrk3q9hC2W6jhAzVC237vXMIyrVskWftv10IbK+Qum7nOm02if49bj/kb3Txu8o95B1leazt2lUGIByjLe7m0aQpxzr4QrSd3lGz3Z4HbDaJ/69r/Fx78Ho6fOSIjgFYXBCHWMIFAGwtcJUBMBAIFwADgXABMBAIFwADgXABMBAIFwADgXABMBAIFwADgXABMBAIFwADgXABMBAIFwADgXABMBAIFwADgXABMBAIFwADgXABMBAIFwADgXABMBAIFwADgXABMJDY/5fH559/Xn2j5+LFi2vf61k75nx3+uVXXEETt9xCO3ZgngBgFMQW7h+fe47uuvNOJVL7P25s8e5IpWhhYYEOHTpEr772Gk3ceivEC8AIiK2irlhU/imWVcKqP6xyup4Tdu3aRT+88UZ64eSLKg4A2BjxhesY6j7W1p82Pz9Px48fpzNn/qVTAAAbYUPCXV1dZY3a/9hq1YpN8b8cxBLfcfgw/fK++1SQOABg48QWruMGO3z22XkVHPxxwX9NEJ1qllIBX6+Sb+1k+37YuUPVbIpS2ar9MesA1L1dH8nyf+Fd7u/Jx1e0EsTus2hNPNpz7X4O/7r/dmXjrjLzySdn6ZXWnfTBByd0CqljSfvcLd6Iwo1FZ4nqZJElXy3vq1y7M+1v3tq73So0iOxP6Nr5eWr08jg0xk5zzpeM5lToBLhRbOFkqNTSCQNI4lz5Rm83wrePtyvxLa7L7b1w4SxdcsmldPXVP9cppI4l7dz5XvdfvJiccOUj11SYp9lii0rH1s+jneoklahCbX9n5ebsjyeL8FsWVdRXrnvkpqcJ39EbMTwx5GtFnkAbVNRJgSR1ruHEFq6znHX4/HOvWyyIoN2IBUuGJi3WLPWl8txMhazaos8FatIxnoKLswNEKF+kpxadauv4MIiFWnOvs+T25L2uuTdP8LjmbOWavmWC5GerTeUNOOep7E6Vss51fVy+4HIdN9L+6c9Xz5OvEbX0l/udZxlQRz/qHj4/VT2PY8V5soxs7RI6125XVyUi96G/boPbMylGYnHPnHlJWVc/e/b8gN5//wUdkzVuQptTzUWqWQVi3bIAx6lg1bT7q5F8noMnBvZojmYqFtXyQWvoAERA+RWqtB3Xu6Az7A7P1Ats5Z28/VTK9EQmgye/Il6Azp89Rfk+Pl6rVCaat89p62dMTUqSpLWpwvXNuwZTWLlCLa9uoPIb4qVM2qJSLmSD7ZWln0vckQF17Edugq9fcS8xOrRUD5k4t5KwPvQsr7i9V/LrJqag9kyKkaxxU2x+d+66UsdcpIh27dyrI3zNMK5yjRvHPcvpIMbAT3OxRlZhXA+KNI0XeHB7lBuN9PQyddsV4lGuyoou4P10jTMic9Nkf6NarDxRZd41WHMzSmT2o9legjd/jjtdH7spzup7yjPOKjewJ4I0Tc+6hRJWro1VmV+7p/JSWqdosLPRr44B5Cao6N5rUMuQsIlzqxnQh223Fef2nl/v1Q3fnhsjvsV1Wc/v7DtMH3/0lo71OH+uQ5ddfkjHhnSVi95NIiesG9g8W5a1m+yQHi9ww5bjuSvpaVqWsriglgjYN7OuQ1v4PAvdc6qy8jzzZtwTj2vTpHOaVtyDRZMZs/RRD2sso48cLFqX5BBWrma/v2B+mtNB7RVUx0ByNMFWp66V21mqU6s4Ec3d3QoG9uH6PrKXVd72Gqo9R8BILK6sb3fuXG9x/e6z+5pRoQaFf6BmSirNGTisBh7qQzakrJfY+oZPADwDL7PQ+dwVcWE9603ZKPFOPBLUZlj7FD9hUgwoNxaD6tgfcZdb9SX2ArSbvK3N7fD122pGsjm1e3daife99/6gU4jee9c+3uVyoWXwjBZ7UFiV9rpBKmtBe+AwakZlcffZbR7IMBtWylLb682yKD1ssgjIb5/aoJzjTFJR8ddxEI673DTBTdZE7cMAb2kzGYmrLJbVyv6J9rHL7LDvqsMqzW2JR745pV/huN1kB+Uut0pka1Vm1AYVZd3sfz/ZnLLdI9mg8PmBnWo5fFPLud6Fcpt4EKhXU55NoQ5Vp3T5zmTi3sTge/Vbww9FWLlRca/Rguo4EO0ul+u8SJyJ7iZLP0TdlR3VucP24aQsfIeoUwKMxFUWRLxu17jfLvOo3+PKu9uWs5vsRwmDXJtUOZqT2ZT0aw4nlMdIvboV6+rbELN3E0NeL/CsbLtXEjJUL7TXXFLZoW0U7bXTWv5YbxNtetn3PIsTylPYKIPLjYDezFLXy4geUMdBKHeZHYh+E+u2IqQP25UVb1ty/vLA3bnkif1nfdVnnqF77r5bx6Lx1FNP02OPPqJjoB/yiqg8tvUD44uO6e0cW7iV6m+V6yuveJQLzHeRW8nvI6s/+ZOffJ687+3KeRyR48cfe9S+gVE0aSqVZ7d5PcXGRjZ9fLDLxsWEW/ltwSa1SRKI25ypU6G9PPi11jYmtnDBxlG/gOEZ+bIbbIJoDUVNjHaDb/vJJQQIFwADif86CACwZUC4ABgIhAuAgUC4ABgIhAuAgUC4ABgIhAuAgUC4ABgIhAuAgUC4ABgIhAuAgUC4ABgIhAuAgUC4ABgIhAuAgUC4ABgIhAuAgUC4ABgH0f8B2LV2NNjQKEwAAAAASUVORK5CYII=;" vertex="1" parent="1">
          <mxGeometry x="120" y="160" width="238" height="97" as="geometry" />
        </mxCell>
        <mxCell id="Bwvvb87Q9qxr3h32M2CW-3" value="" style="shape=image;verticalLabelPosition=bottom;labelBackgroundColor=default;verticalAlign=top;aspect=fixed;imageAspect=0;image=data:image/png,iVBORw0KGgoAAAANSUhEUgAAAjYAAADACAYAAAAX4ikYAAAAAXNSR0IArs4c6QAAAARnQU1BAACxjwv8YQUAAAAJcEhZcwAAEnQAABJ0Ad5mH3gAAEzRSURBVHhe7Z29duK88/gn/xvZBm+RQ7uNuQJIk2K/tHSmhCZdynRpTAkdLdukiSm2hitgs+fELp69g98d+D+jF2PL8gtvAcx8zuNnY2PL8mgkjUcj6+7Pnz8xAn///gWGYRiGYZhr5u7//u//Yvrj9+/f8L///Q/IyGEun3///sG3b9/UHsPkYR05DJbfYbD8DoPltz//T/0rYKOGYRiGYZhrJmPYMAzDMAzDXDNs2DAMwzAM0xjYsGEYhmEYpjGwYcMwDMMwTGM40LCJYNK5g7vhUu0zjJ3l8DL0JJp04O5uCKyx+3MpZckwaZpft/frb49TX6+rr2ePDdMclhMYTrjDZRiGuWXYsGF2Yzm82Lei5dsYZuM39sY0hQvWtUKOnedrlAHDnBk2bJjG0J3GEMdT6Kp9hmEY5vaoNGyiyRA6d3f41iC3znAJkfrNSrSEYYfGOvU1HRhOjCvEOds07zr4RpI+peJ3MWbYmUAUTVLn4X3SrzU18qHHHiN8K0qeEe8lTkunrY+lyMrF8oxfSsH4Jz4D5VEfzuc5XZb2NNLj1kJevRn+NYMepUFlUOO6NKasM+WOHCJXcU+RJ02Eed7qAOluqH65WUrr1hHLsqqOI2Vlbde1C6DkuQrzXKMtSnRXtztYBhcrgwOpquPiudOy0OdlFJDrtqCGbmlO2fZeHLSkAm2/fv2iNaMyhL4bA7ixF4RxGNIWxB5A7PqhPiP2XYjBC4x9H/9SRwKPPmeMaagDqWvkOWEceLjv6muqfo/lPuUD7xOIfKlrwIvlberkI5UOpi3Tkc8HrovHMC11TKSVur+Ui/xd7Ad+7Bppn5r//vtP/aUQz6efX5LkM/nbjX1dlirPxWUpSadB50g5atnIY9XXaVmjXKlcTyRXcX1OT1LP7HsivXS+mkxOR1JlpSQsZZTI7FhlWXWfVJqFZY3p5nTta9lHfsX1I/XslrZI6q5sd/xgm/65ZXAIefmp5ywt91S7XNi+30bdLtO/7H65blXX1zrlYt77sikxbEwjxkadhzXTUfuF11T9rgoqVSgCUaCo6IXZzT+PLR3ZwFiOJRVGpmNmz3bdKckrvZkvWTbyefPPTmSfy16W2XMQ3dCq3brXCVnnhZaqPIfLNXtunWduNkU6Uly3jluWVXU8n4RR1jld+1p2lx9SK8953SzUyzPL4BCq2yiJWe7V7XtefkTT6na1YWMjL5vjtL117n05FA9FRZ+wwX/a31tyfwei5QQmwyF0Oh3cekDO1C1dmKKkYdYT7q7OEM/N+MSqfq9PeT72RMll1tMuO7k547X8/Wx04ZHE9qb8tdE7LNYu9B+w/ArKsvW9jf/fwOe5PI6t70A5EBxbrgfob3M5Xt3KkS7LqvtcbB2qYn/5naQtujaOVe5ctzPspVunbHsvgCMHD8sxeuflA+DxCebzFaxWAWBTkKU7hVUcQxg+Qx8WsOg52fHjqt8rqZmPA0DDVSwamtlWIzhnVesKy+ZFxANF7wtYu30gu+aauES5NoqD61ZNatznKst6Z/mdvi26NriOH4vj6laTyqXYsFEW3ab0db4F4qVfI7wEKKDnKYy6LWgVSCSKZJqtVhdGUywMegtaL+Bd3arq90pq5mMvCuUSYb7Vn+ei+wS+u4YFCuodBeD2H6RSFuQ5+hTvPXC2F5/l2/bt4thyraW/t8fBdauIdFkipfe55DpUwc7yO2VbdG0cq9xvtm7v199a2bntNe594ZR4bLrw5LuwHg9guKQHpG0JQ3JTGbMmYPMGS5JAIiA9HIIW5fDFcI0t4dVxoDPB9MR+BMtMB1v1ew1q5WNftnJJ3NBCLg44r4ZcvpwWPPQxb4vBdhhKkM2zKMvlBAZjNH78J/yVUIpLHh91znIyFOfk2cCnOIf+3uG6WQ/ErDq6P8nsBUvE9eFJZODYcpVDc9lnLnqeW6Gqbh2rLKvus0tZp3Xt3NRtm1J5PkpbdEkyOIRj1fEbr9s79beKY7W9+t6XTtmsKGIbbS43CpzLhGyFfuxRUJEO7ApS51OEv4pozwR6Jdekz1O/ERW/40tSRXCZ3K/Khy2dXAAjYgtKq5TLickHlilUUFhOPkg2z27s+Waeg5Tc6Xf8NRe8iHL0SB7pe1RfJ2RNMkrnAcslMDJ5iFzzZZfKq06rYQGGZVh1pKruHassK+9Tp6xtuvZ17Cc/S55rtEXFenleGRxCURtVVe612ve0XHQaDavb5fpXv789Wttr3vuCuSOjBh8Cfv/+DT9//qQ/mSvg379/8O3bN7WXgr5d44yhHcQw5S/V3TSFOsLUguV3GCy/w2D57c+Rg4eZcyKGDl7HsAYPHhtn1CzFh6hk5H9+u+qPSTEMwzBHgz02V0rOmleemjW44AUr9tYw/MZ3ICy/w2D5HQbLb3/YY9MUWiMxDTWO2ahhGIZhbhc2bBiGYRiGaQx3f/78oSBi+Pv3L/z48UMdZhiGYRiGuT44xuZK4fFXpgrWkcNg+R0Gy+8wWH77w0NRDMMwDMM0BjZsGIZhGIZpDGzYMAzDMAzTGNiwYRiGYRimMbBhwzAMwzBMY6hn2NBXbWlV785ErWp7PJbD06TLFBNNhrI8xdaBzmS5lf9yKI6bC7hrHaCVjTWl6SDHK1taaTZ7bxNa3bfT0Xmh+3bEqvRW8FmGqXPFqrfqpyLMZ+UlHJjLp6Te6Dbd2MrqmGDf666SAvmpNrJoK5XFTcnvlJT3CbUMm+h9AWJB+PUC3ln+V0006YAzngH4AYRhCIHfBhj3YKAVpPsEvgswe8kaJGINKteH+agl9ivTORLRkhqCnn0pfsVyiHnpbaDdl3kR+enTSv0O3JkWGjVKzhg2bXVu4Isl/Z30eXjPIRppGvmsmH4g0w6DNmzGDjdGhCGrWuxzDbMTlfUm/BBrygWqvuhN1+9C9r3uyiiVn/MEQRDkN98DbDqh/b1EFjciv1NSp08A+o4Nbb9+/RLLfefRy6D7ueXQj4F1iXqmEuuS9pXIsqQl7NPklvsPfbF8fXJa4NG3jrb7NdM5tGxlem7soe55tIy+Tfdyeduir99epvJt5kmksT1P5Dt5jpJnvXC9teqIeNZUWR9IVlb12Oeac7BfHTs/tevNPvq7w3WNlp+FWm3CDcjvlNQtm2qPTfQOizVZoSP4ji/l68X7EYYWmPMQwgeWpVe19HdrBM+oNdJrE8HkBW1j14en5LKa6RxI62EOIa19NfqujpjY8ralNXoG30OlDZXGKl32nkeQeT/qTsUaW/qlqTulNbemwEtuVbOPrI4jXyx7Gk7kYewc1fUGpfe5UX/txr7XXRN15JdnCa/jNbj9h2zbYnAL8jsldcum0rCRw1AeUB/WfcTezjIcRa560cDo2IWUWz8bm3BXHM+QiXug+Ah1XFEV45DPw0Q2fPmERDrm4UYQLfHZUQ6FcurCNI5zi2SGZKUYdKcBeOsxDIavMF674M/TxkD9dARFZavKYptfuSVDPK1WaSOhDazixqQLo+kURl31q3ADu3DvyN0iEl0Sey0YCSuvJ2QZRbgthzDARixnIF04IuapRw7cGfRI1uoZC+tvpT6ZslL3SKelr0vVt32ukXnRv9HmwKIfQry6rjL4EirrjeYD3ofb8q0TaybZ97orobb8tkSTF6xVHjzXGlJquPxOSd2yKR+KMt3wgdX9I11wbuy6XuwHQeJmS9xGQRiHIW3566VbGo95fhyoc8Q9U65qmQ7u4+9iPzCGShBrHixu9yQttX+t5N2Uuqy2bs5QPL99mCZBDTvZXHpSVunyL8GSTq2yFcfVVlg2dr0ry7sVrQ+kh6gr4tloQ51BFU2QupR2F4dxoGWhNtff6vmlYtMRqRP0vCRzdVQ8r1l/6+mTKat8mat00mW+8zVy38UbJ3nJldHxuf6hgIJ6gwj5aT0mmWPZUl2qquu7XNdk+WWpe96tye+UlMu83LAxYy1UA2M2KLKwtg2XpF5hi0bNbKBEA6pjHmQ6ZrmbDVtZHsz811HAS6ee0leVgb08NbrDqe5A7OlUl22KnK6lKXgOq2Gj8kL51ptOVNybjtEYrWpYhJFDx6o6XvxdH9AGmj2zF4NVR4QMsvXEXnds5MvBKquKMt/5GptuFOnREWm0YYM6HKSteaSOHuxy3c0YNpY6VcRtye+UlJdN6VCUHIYi171ywUcAD31sYurMjoo+gUYTSyPE66DSmfW0C1puzrhg2CNDF2j0bPamXesUY+FC/+HAPF0wFDE+GdLU5w5uZZHjFKPgwJgi9G3u/OUQejMXfN8Hdz2G1/SwQIaKdGqBaQzGAH6YG94qpfUd2urPLS0YzfVsg0DM8MqCzxTSGG0XWuTWbHVhOsdnRElpNckQTYDCeLxgCnpEC/CaEV0zewFjZKZx1NenE9J6AGp2NlhAWtwiVsHtQ4Or8kkhve8mCi1pURAltrafJTq973XNRcX5eY+1YsZYfl9DiWETwTtFWqJpM3YccPQmDIo1LL543je+rQEaYtmtRkcq4oJUByQMtcY2hjKY0nn5AHh8gvl8BatVgOaGDYpXIGPEh3BlC+LUlfUZRiMVSNwb4lUmVenUYzmUaew+5dGBe2FnGwHtwmChDWQMjg6qce7FdMwcykDa2FqW0ricNXyE6s/GsYs+nZptnJOjX2wWbQgycV8McwaWKgbRNnuBORvFho2aQeLiW3TWoAjFW3Dl7KiyzmIXCtORHqRKxHdZpCFGhlpV1PrVksz4kcGy1KnbIWOE3rzJGLF3DNFkkKms3Sfp0XjJuCeq06mF9gzt1UmpDq/Io7R8w/ylPHTizR8NdfPkMu+iMIYsBkzNQOSrpbY+fQWoa70N9MNUO0SG9FnzdMWooP1McDYiZ+y0odDJvu91jSX1Aljn2Vl+X0ahYaOHofLDNq2aw1FdeEILaD0eYEHqoSxsoOiNyyzZUrbpTPSXZEU6DjjF4yMpZH7Xi0Gzh6ESA1DJBOU9GVKkfhptjHj4tvsgzpHlIjd9Dk1bzFRWNf1blIE4rU46daAOC1Px5/AgDFW1qV8JeUztQGjsI90pBB6aXT2aXTCBpfg9giXNosO03Uyjs33zFzMRxLkTGDry44PWly499b1Hs3Rk2uIrxzS76Gq9fxv4FM+idm3U0qevgjxz5DnODkd3OlTe6hQmQ2m9UUN7pNPUpmqdppl+rv+UeF7F7LV0R1zzuiZQKj+NNv4LPntxy/I7JbXKxh48XB5UagbzlQWdhb6K+lZbemYDUTfAtCqd0sA3ld/C57lCigJDExnRDBc1uyQJsBJy3crQ3Kg8k0BZeUUKGawlAmZrpCOuqChbWWb56/PBvsZmKUcxuyAdNOzK2Xg2aFadDBiWG83GSZ8p8pW5R4hZcVP6h38b+neJ2IMPUSfwWaSM5DMW1h2SqX5mmz4hpqxOEjysdI9kHgRq0+2Bed0RudrgzVr1Jq/TXqpcCakXVI/UAUH1dZpmy69Ab1PcrPxOSc2yuSOjBn+A379/w8+fP+nP5kEuQHwrbwf5b69cK//+/YNv376pPYbJ0xQdoTdfZ9HPDXkWHT8WXMcOg+V3GCy//an8QN+1Q24qsc4RyI8MMgxzXYhZIyKOKuVvjpbwSuMA7e8nMWoYhrlemm3YRBMYOI4IThXTddVhhmGuiO4UwsCDzYuzjbFxXgBo0dOmuGAZhjkazTZsWiNYiVkUq8YMQTHMLdJC42a1Ss2KEuvFdNlbwzBMjsYPRTEMwzAMczvc/fnzh4KI4e/fv/Djxw91mGEYhmEY5vq4jVlRDYQj5pkqWEcOg+V3GCy/w2D57Q8PRTEMwzAM0xjYsGEYhmEYpjGwYcMwDMMwTGNgw4ZhGIZhmMbAhg3DMAzDMI2hnmGjllu/60wyKy8fg+XwNOneIrnVZDPIldU7cnluQbHsI5h0qstF3m+IKR8PsXI23Vt/YbYjV9X+SorlImW42+r0DPOFYP1J6o5lE/W/zjlF6L5gl2uuidqyifBU2d6KrW471XT5fRn5/ixNLcMmel/Amv5YL+Cd5X/xzHrHNTZqs5zAcLLcGgRqvy5kUDi9DbTpU/lhKLagT8/jfKkx0X3ywRVrE6kDimjyAjNwwX/iz1gn7FjGgn2uYerhPEEQBPnN91BzaWmtVr1zigg/xLp7gaqfepuPGvIN6FqyoRc/B3ozAD/ItlOVzVTT5fcFRNh+dO562BaXQN+xoe3Xr1/0oT4LYey7ELu+r/4tWqR9P6qWfmfs2Ja0F8vku2pJ/Oxa+UgQe3g8XX7FspdlXlUucll+D1OWBOY+pZ/aL0UtR5/LNqKX/z+y6pWSl42UX16ul4tNR6Sca5ZJDXYqY8U+15wDq/yuFNk21KjPVW0x6U/VOYrGyq+grSpuT1PcqPyOhe4LPLRHzP4sTbXHJnoHuYjuCMQiu4v30uEJ5tz0YY41DGYv8NXeze5oBXG8XWy0O6U1feosPopvQC9of7s+2JwhrdEz+B4qX/h1D2R6bdhbY6d+GW/Z55o89YZLGWIJr+M1uP2HkrW16pyDUv/cqL9uCZtsPHg0FFi2GeWjGrcpv+PRephDKNaJ+66O2Kk0bOQwlCzE7iN2mJaCE7EW1MBEExhSY5Pyx0WTYWZMsYO/WctdXyvOo/FKdVyRTQd/N3rtfB4msuHLJyTSqXQZXjPdJ/DdNYwHx2z0s2PKVI6h+kVjxtwkZaL2iwnhg8Y6298LGtUujKZTGHX1r/m8LJN7qw6votwr9bI1gmdhH1L+VcPmz+GaPcYidoj852ii9ei5VdkU1t9oiftbOZfWO7WfxCeV1Od9rpF50b/R5sCiH0K8GvFCmBVIo9yD5xLlrXPOlg94N+pfViuahV02G/i0PvQaPsyGMcdtye+otFq16nuFYRPBO7lrvEf5dtV9xOJdw8Jqki5gMPiA++cAQrWUNjVgzngDbTUOGYYBtGc9GJiuBHwzHrwCPM7lOdQpp+NEZDoAz5hGHMcQBn3YjG3jmek8jGAkeqa3JB0ibag1lxaM5tLjkJP1niyH2THl+f0bvGBnfxSiT2wmANx7R+5XUJ6XFjz0XXu5K49QXb1MvDbDtx0a/culO8VnJW8ePosY45+njQKz/qKBOOjBrN3HNyS5onYYtGFmrXcGmfoc5uqzldJrZF42bcybzovvsve4FtoofyrxkNU5J8V6Bov7Z1l3hHe4B06lUlwrFtmofnA8GMIkitAgx1cfelHCTqpWi3hT8jsTpTE2oS/iNbZjifbYCznuZY6Z52M6bFjHJcUYpo6pkOmY45nmeHBZHsz8HztO6BwUx9iYMsnKcb8YG3tZmjK37lvTN1B6Vq9c6uSlrNzt1xchZLTD+ZdE3Rgbs9yKycvOLOPq+rzHNbl2CDHSPAWNiHGwlHeOOuco8CUgDoKs0Iv0p9HyQzl41EaiXor2wcVz6JippwY3J7+TUd6Ol3pspHfDhXtHWqX4n3wbrjM7Sr2Fl0bY10GlM+ul3dB3+MZdxzbuAo2ezd6UNSzihVzoP1z3m3ddWqO5HJIyp/fsyrHKsojWd2jjP+tqH27NvJSU+47PIoZfsQ7cis6Y0AyEyZCm4Hdwq5iJcCpaD0DNzgbLUzc7IlbB7cONFktNVOya9rhbqXPOllarC91kSFjSouBLrFX2oZlrpkQ2KIfpSnoPaVutKGZMti1l3Jb89kSFDST9fWrYui4lho0ahiKXm+OAozdhUBQNR50OtIITJUq2GuPromNSgbRyOOKWGsOWGo7rVQ8f2CiMeTk2DtxjxwWbzwIFLv9mgQ1Z7nI46vbK/Rhgo97BF4iXD4DHJ5jPV9h4B0Bm3tez1WNHNXbOog1BZiiNybF8hTEa9KUB73XOuVV2lY2Yyk2OALXP7EdrBHMaptPbHvW82LBRs6FcX8a1bDca/yanTcX4tnoL3xxqhhamIz1IlahAWjLEyFCrivpvHN0pBKJPyL9tO2RN2Lxvuux1DT1WWRaiOi6KZ7EYYHpGkvCa1M2LGAefwdvSKPeTP0tDUDrgPcug7dZZKw0atr0N9MNUO0RvyDdVkXdFexueSwLe65yTwgjA18iZPm04lUP3PJTIRnzEr5Obdbp8w/PLXqBuSn6H0aIg4WRTB3eg0LDRw1B5F7wKzqwcjurCE1pA6/EAC1IPZck3790+trZNZ6K/7CjSccCpNcQi87teDG5qGCpNd2p/06Zp1CIIzsFKulzKMqKPpw0oCC4dLCuHdnQZyPOGMKg1HFiTxACjmTcqL7hRUJ64T9LA1M2LGo56oXLPPstx9PKa2cCneHa1ayMxAJVM8OTJkAzMc0AePdJT5ZpWW6czAd0kMAbaMC2bJVFxjpi9hnJOqoUaEqQ6ata92oHH10KZbJJZp0PUPymH5bAjJjR4z1vvwk3L74TINlvtQGjsSwoMGzUMVWB9th76aPJUT2trjVYQ+m3Y9PRQVg823nbWVF10Ogv6Ai01ajumI/K7Xt/wcITszPN0YUqz0NAAGPd6sox6Y9i0fQjC7HdGaEaNPE+W5eDtEebWNPeHvm9CM282C5UX3HoLOXspTpW1LS/PlrzIWU1Y7sYY+bH08iqhRlnLrvRzAKgbZGmOe7LO0ZSlJ4rZUj9/KfJzAC6WUfpLsGidQu+onzRoDstXfDkp+C6Ups45KHX1L9GC0SoULyDUFou6Q18K90NY1XL5XA/lspFy8Nsb6Ol2atMGP4wh34TcpvxOBhqCus2ml6w1tk9i32gH7mhGFP3x+/dv+PnzpzjYOMgF6Iyxg7Qp3nXy798/+Pbtm9q7DOQ06jYEB398bXfOee9L5RJ1ZB9E2S76EBoxdUXHj0VT5HcuWH6HwfLbn9JZUU1AuAnJ+oamf7vmzKCcpZfvHvKxc0vxoTc5sya/mR99Y5g0YtaIiL9K6Um0hFfSty8LcGcY5lpotmETTWBAbsKZC17Ab/KnAw0XlDPNIEiPMW+hqZE0q8a+TdkNy5TRnYoPmW1e1FC0GI5+AaDFUm9h+JBhmJ24jaGoBsJuSqYK1pHDYPkdBsvvMFh++9P4oSiGYRiGYW6Huz9//sT0XYi/f//Cjx8/1GGGYRiGYZjrg4eirhR2UzJVsI4cBsvvMFh+h8Hy2x8eimIYhmEYpjGwYcMwDMMwTGNgw4ZhGIZhmMbAhg3DMAzDMI2BDRuGYRiGYRpDPcNGLbd+1zn+gnPL4WnSvVVotVhRVmLriBWsbYjzOvo8KoPicw9Br3DbKVo2waJb8pohFK21XfV7Gn3/zNYZitV1TaKJkh3lBeVD5+YW/Fb5LXwehrkAEl0WWwf1dVnSxkYwobagTjus66uxNa0+1JIfymKYakM72Fiw/L6KJQxL5FbLsIneF7CmP9YLeGf5Xy5YaQZi7fwAwlCuIjvrObnOmYxJsaosfZIezxPn9uVq13e5nvw4rMevVkNEruN1ajwI1HOGtJo5zGDcG0C2TizhdTwTK+2G8xG0aBVsF+X3km3s9aq/c14GQrLExh0b/Z3Y5xqmNmJxUNRl8FU74LfFKu2Dgk4gmgxgXLcShh9i3b1tfZJbk+pDLfnRi48zhk1btaGBT40tOFXt5w3I79RE2H507uTq3oXQd2xo+/XrF32oz0IYYwMfu76v/g3V8eOAnW8Mro93YXbhv//+U39tyctSlh0aOmofCTz6blGcPpRQ9tuehL4r0qQtpzuhH7vgxi7lMZVveY0XF2Wj6vc09nODGG2+bH7Es7txJosifyl5nEA+p8SmI/IZ6smuDkLndkxvn2vOgVV+F4+lziPFdUbVBRd/r9MOk/7UbK+bKz91jikHWxti0nj5nRZZDm7soT2Sa8NTVHtsoneQi+iOQCyyu3ivdrcxZ2AJb2jCuv2H1CKULXjok9vhTXlLIpi80Ek+PNnWDizwUhwOvqFgb7Yep70kmJfBGNbeMzyjXn0p0Sds8J/294q3pNYInsnrJeRRIbsEPK+uW78BdKcxxPFuC8zuc02e25JzfUL4wPbae6wn3eUQ33y9AOZ9daCC6JNqTpOpIT/VJ+YW/O1OUa9XUOZ8ab78TkvrYQ4hyng6+q6O2Kk0bOQwlAdUzt1HbOUtw1EijoEaGD3mmHLHZccqS8YhM+OVFO+hjivMMc+h4VbN52EiG758QiKdKo9hU2iRNYrd+KcQl6y02KNbVuAmlCG0/sAz6xBhw7iNYaGyXYqYFkv8izCa1jB+Vb8sX8Vq4H6hlYB5XmJ6lu39Q51CiFiYTspgkmOvufKN0DQRG/5OBlXKQBFxXjSEh5o+dvDvVGfZnQbgrccwGKr80jCV+k1A6SV6S5sDi34I8cq2yvl52T7nDHqUV/WchfVXPNu2fEvrndpPYuZK6vM+11yTnM9LF6ZxDOai56Go+AYo75dZWR0s4gPejXqf1Yprpob8xHCSC/eO2t+ZJsvvxLRa9ep7+VCU6ZazuPAR4R5yaUjBi/0gSNxsidsoCOMwpC1/vXRL4zHPjwN1jrhnym2auAHxd7EfGEMEiDUPFrd7kpbav1Zybkpz2ESTdo+qc4rcd4Qus5JTEmTZ4bm6fH1PpG8tO9pJ8iL1SudDpJMbipJ6Ubxt7yGuVw9eLy1yZW71FM9CnVJ5E8+iDiuSNHLCVc+BxzP3q+lqPjV5V7Z+TpSdqGvqqMizWX913U/JUlxrq3fbc/L1WaVj6sRO15xHzo0ZCrDWeyVTdayuPMV5Ii0sCyor1AlR53N1o8HyS+oQ9mc0hEfPTxvWH2w+SrlJ+Z0Euy2iKTdscp2lanCMCiALa9twScpvrDE7IoFQHN25ynTMcjcrYlkezPxX5ekaOL9hYy9fsxzMfd2J5Y5VluWW3O/iuTDPvvo3lSVrWkoOmcYko3NZkjybemqTeUk6X421YRT5y8qjSt5b8mUurk3Jpbo+73HNmeTcjI7F3mZL+W3L3CyTIujFMzB67yL9aaz8hOzwGOqfeEESxjjWDTqvoh7dnvxOhb3/0ZQORclhKHK5aTc+qKGKGrOj6sYxVKHSmfXSbug7cGqF8XeBRs9mb9q1TmOjLvQfGui8bn0HMegkx5zsqHPWH1UDTW2oLLY9y7f75KNGYZPgPx0YY5GiNYK5DzAejwH8eekYt0Ccj7mYvRgzoywsh9Ajd72P+V6PQY+kCVoPQNVhg/qlkxFj6G4fmqJiNANhMhxCp9PBrWImwqm4ATmfBopDcmBMMW6ZIbslDHuzvepgq9WFbjcr9Oxwd5Mokh+BbUJIsR5dlElLyGWKjZCLNUR3NzZuS357osJFkv4+NWxdlxLDJoJ3ipAScQcOOHoTBsUaFl887xvf1gANsexWY3xdxAWpDkwYajfWGMpgNW2oOHBPVsXms0BRVJm793jmiUCjYoVltzry9EY9Bl43uF02JlWogGHvGUYjFUjcS8cPtWAkD4KjDe5FGwIzDucqkcG5zssHwOMTzOcrWK0CbOLPQZPlfCooJok6ZR/CVTZQO5q8wMz14fkB/1axZ/pVJ6R99fdtUyw/cO7Fy1mOOi+XTDX04pmeDr9HPS82bFTkt+uHhkERipkzlR3IsQq5MB3pQapEBa2SIUaddnbWUJOQ3qlsuShDxXtUFVN1EKbnQSMCeqkfr6FIl1SJhVeFvg0hA32tz2aQNfjsyO97bIMrpbdpBi+Jm4fefDfQD1P1gxrBJihYMvNjCiN8IHwpPSMNlvNJoE6ZvGvUKefrsngJwHrSS72w9qji62OZqO0U6k3a/LlOXbouyuUnPYipiRCaKi/2zcjvcKQXTG/q4A4UGjZ6GCo/bKNnzlQNR3XhCS0gmuJLX7RNZqTQG1dRxbGyTSf5WqxIBytgnR5M5Xe9GDR3GEohZ63RDJ6lkPdyKD+8lZm62J2qD/fRVxvleeJcmnWmPu5nzgiwowwpVS4iHTQwBrWGCI8JdXrKrd6SupL1qijUc5IO0swt4XlMDD4b9ME+Oud5O7Slpn9vp62TB0zNpFKeBNo6nQmc4CPOR4RmnJEs1K6NxHBVksSTJ0N805d7X8y1yvkc6E4ZDf25cMkovZcbIafbZ7eQ3lZd7MhpXzUAYvYayjlprtWQ4KzXydX5ow4tn5Vq+VGfoj2IYkaT+G0CQyc72/I25Xd6pLzVDoTGvsIePFwQcKYxgvmKgp+I7UwZuaVnNhB1gg2JqnTK8qDzW/g8V0hRYFkSZS82OSPNhjhPBLupzS0+txjUE4/kLtOgMgmMcigtF4WpA1XXpH/P64/SXaWc8lyZv+1mzopCDJ0T6VrzIIPWZPoqgI2eO1Cb1tML0DW7jqTKTOWxUN5pXaIZU2q20pcHD59JzlcZvCnkpsrMsqlqkcMsE0LqBbUL6oAgxFu42TYm3VCnaLr8aHauDBiWG83qu3n5nZqi8jF0946MGvwBfv/+DT9//qQ/mwe5ANGabgf57xNcK//+/YNv376pvcuB3lKccRuCgz/AdvmIZ130c+7qouNfzaXqyK6cS85Nkd+5YPkdBstvfyo/0HftkJtKrkckPzLI1IVcsjQTxr6ZH2q7RUQAsojpSckiWsIrBacUfgSR2RWWM8Mwu9BswyaawIAC42YueEHzPQjHpQvTFc2EsW9TXrRNxCuFgQebF2cb++G8ANDiok1xDV4CLGeGYXbgNoaiGgi7KZkqWEcOg+V3GCy/w2D57U/jh6IYhmEYhrkd7v78+UNBxPD371/48eOHOswwDMMwDHN98FDUlcJuSqYK1pHDYPkdBsvvMFh++8NDUQzDMAzDNAY2bBiGYRiGaQxs2DAMwzAM0xjYsGEYhmEYpjGwYcMwDMMwTGOoZ9io5dbvOhM49of0l8PTpMtQsdHqspaVrhWZ35fD7VddLVtnhyUUdrlvcfnTCu74m7ESPK2G2+mk8kbLOxhLPMv0U+eIrSNX4lXnHJUT1g+GOYwIJlRfcrpJq/+n6omlHlnRum5su7QPF89OzyjbqdrPfwvy+xLK5V7LsIneF7CmP9YLeGf5Xy7LCQwnReZEBc4TBEGQ33wPXPy5/f00Syh0n3xwxTpA6oAimrzADO/sP20/mU9GkNPbQJs+pR+GYgv6ALOekzOAADwI1DniPL9NJ4KTO+9wbrp+7KNzh+gpsxPRZABjoZxpyNhxoDcD8INsPaqsHuGHWHcvXbdomzdpiZWazxihHnfuethO7cAtyO/E1JI7fceGtl+/fonlvvOEse9C7Pq++te+xPq+BF5+yXGmGtuS9kKW4MV6lXy5bP5236Tqd0Kcs2P57HrfvA4EsUdL0afX+1fL1acPaWR6bqxVs+j+5nnH4bT14xBsOiLlWF7mu2DqXB32ueYcWOV3Vch65Lqo9+n6VVCXarXFdG3N9uBq5VfjGXVb4mG9FzKuW+9vQX4npK7cqz020TvIRXRHIBbZXbyzu/1C6U5jiONjLva5hFd83XP7DyddQdn02uS9NfiG+YL2uetDyoGT0Bo9g++hcoblmilWicb3pY9Q7h+FG68f++jccfS0aIiF0SyH+FbrBTDvqwMZPHg0CkDWw3KvY/S5UX81lzrP2HqYQxjTYsDf1ZF63IL8TklduVcaNtLNLitB9xFtJIvii5gGamCiCQypsUn5M6PJMDOmWBjnoK8V59F4rzquyKaDvxtja/k8TGTDl09IpFPpcr1CEhmofckGPpdLWFq29w91SgHSwPDg2XTBVpSFZIf7tkbwjKo1e6G8K2PKn8P2tiF8kDu9/b3AwOrCaDqFUbfc/JKNigv3jtwn8s+i9VN1nBX6U6d+XAoinonGH7BUe/S8SlcK62+0xP1UHEZZvVP7ScxUSX3e5xqZF/0bbQ4s+iHEq9FJje6rBWX5MssO5WbB+mnV0zqG/we8p+JzTha7dlYqnrHVOkDvbkF+J6Ku3MuHoqSbfTskoFybhvtHuIdcN3ZdL/aDIHGzJW6jIIzDkLb89dItjcc8Pw7UOeKeKVe1TAf38XexH/ixi9ekXanWPFjc7klaav9asbkppQy2bk75rFK+xVuRLErKuk5ZZO5h24z7hiodL19m+re67t50HqXehXHgeyKN9PCWPM9FfVHnqWdJ7lOpP/Xqx7nI6wg9o3omIRd1lJ4pV3/1s6X0SVxrq3fbc/L1WaWTkuPu18h9F2+c5MVI4xRc71CAkpfSw7yspJ4ClbeSd1I/jPI1EWlRWflYFnQt6oRZrzTXKr9dnnHXOn8L8vsayuVebtjoziaRuWpwjAZFFla2A6hb4NZxXdGA6lgImY5Z7mZlLcuDmf9L6XgOob5hY8pkS+nvogyq5Ck51n2TDs4sn70MG5nWdsOOGzO+TcGun9m8VehPzfpxLqwNo6Vcq8prS15m4trU81bX5z2uyckZMdI8BVfbsRhlbMpbQC+ZpKsoV9rIqA3Ui6dZv9PQi2eALwJpivTnag2bHZ4RhW1tR4q4Bfl9DeVyLx2Kkm52ct1HEEW0ATz0sYmp426PPoEc/wfPplHpzHraBS03Jx/qb6ELNDowe0vGDWCxdqH/wM7rclRMi/eYjYM4qCyqEUM5qG+58ml9BxEds1NwjAfYUADquNpWsJp2t27MAv2UcTjaTV+uPwfVjyuBZiBMhjTFvoPbjjNAjkXrAUisGywHLVYxrOj2gauyyRKGvRnaMU/lMUytLkxX2/qxWlHMk6wTZbTwuq4x5JutM9fPKZ/xFuR3MGq4P+ljUsPWdSkxbCJ4p6hIbLrHjgOO3kQntobFF7fc+BaR6qTUVmN8XXSWsxeg0ADREXFjWM3yFcbYgReNz+9bFvvjwD12bLD5LFDwHb8lsQPF+nNZ9eP4yBgj5+UD4PEJ5nM0DFcBmovnoAUjEYTVA0c1ds6iDcGc42tMRFyc68PzA/4tjO0I9OtASPvqbytiKnI2Bo1hvpzWCObp6fB71PNiw0bN9nD90OjEQvDFS2nF7A/1lr052MQtSke+IVfSfcL8yo6GOqJTz/C5frS35jkVvKs4tCz2RnVslu/dEHoW1U6euIJnkQHGbUgcOUX6c2j9uHTU83nPMii7ddZKQ16IDfTDlJzJw3DWPF0mIUXZYz3ppYztHhnb+hhFZIuPcXaEsZ5m+UYzD0te/NSbdCaoG8nVmWvmlM94C/I7Ei0KEk42dXAHCg0b7WbPdxatmu72LjxhC78eD7Ag5ZtDRDMb6I3LLNlStulM9JcxRTpYSW29XA6Z3/ViwMNQddAdmjkXVHBoWRxAdwqBeGlXM5eEPkWwnAxhQA23zRArJfssIr3lRKSVdePb9efw+nFONvApnlnt2kgMP1WuePJkSAbkOSCPHXnGUu5p3DqdCWg1ZCRyKn12C8nSdn0IaX+Kmq2M9fFgiPJT9WjYER/s8563b8di9lq6I1ZDglQHt3VG1r/Koa9rYYdnFL8l+hca+zcqvy+gSu5EgWGj3OwF1nvroY9NevW0wNZohZWqDZuefnvowcYLIKTKtQM6nQV9YZYatR3TEfldr3kYqgbL1zHKyf69GOLQsjgEarTDAPVp0du+jS420A5C2WDvSPpZRHq9BbT9IPcV0Lz+HKd+nAXq1NBAHNMzD8rGrrswJUty3JPlPHgFeJoLb9TXI6f7u6hn6S9iCy9E6TMwdlowWoXgtzeJZ6e3aYMfxpCvRukCl9eRWmzrDNY/P4TVbm8VF0zNZ0SDRPyG7R8Z+2usJ2I/p4+3Jr8TU1PudzQjiv74/fs3/Pz5UxxsHOQCdMbYAdoq7nXy798/+Pbtm9pjTsqV6k9TdITefJ1FH0Ijjqvo+LHgOnYYLL/DYPntT+msqCZAbirhhVAfUWOYXWD9OT9i1oiIr0q9k0VLeCWvWeFHGxmGuVWabdjgm/bAcaA3c8ELjrnUAHMTsP5cBt0phIEHmxc1/CmGQF8AaDHUprhgGYY5GrcxFNVA2E3JVME6chgsv8Ng+R0Gy29/Gj8UxTAMwzDM7XD358+fmKYE/v37F378+KEOMwzDMAzDXB88FHWlsJuSqYJ15DBYfofB8jsMlt/+8FAUwzAMwzCNgQ0bhmEYhmEaAxs2DMMwDMM0BjZsGIZhGIZpDGzYMAzDMAzTGOoZNmq59bvO8RecWw5Pk+6tEk2GsqzE1oEOrYStfqMFxJIvt5rbgWWQ3Pery1LrprF1JttcCB27G8KJ1x9nmCuHVsvHNiOpR/j3MNV+KMw2Zpiqa4wmgkkH5WNpD2lF74z8eIn6PVjCEOWXbufT1DJsovcFrOmP9QLeuQwuFrEo4HgG4AcQhiEEfluszjzQhU+fpsfj2c2X688etObOEl7xvrRKbTg/zYKEhYQfYh2nwHguc4Vu5kQsJ9ix7Wgy7nMNc3KWQwd6Y2wKAlWPAmw/Zj1w0LjRyDZGrqivz9mMncIO5laJJgMYi07TgJZp6WEb7ak22iMRO2jcqN+ZSiJsPzp3cnXvQug7NrT9+vWLPtRnIYx9F2LX99W/oTp+HLBgY3B9vAuzC//995/6SyPLCSuM2peEvhtjLYqzR7cI+Zf8niPw8ueLY26cUQ3beaeA7lOhPzs/Y0PI6why5HLZR7bXUh5W+TWWIMY+Nte+Z9uPkjbGUgdvS35plCzdvFzy/Z1dpsTtyq8YqY9u7KE9YtNXTbXHJnoHuYjuCMQiu4v3rx1qYGoSwgeWk7fLEtTLIdDLg+s/lSzwWOxSvQSiz436izkH3WkMcbzbAqH7XJPnsvXy+ujCNI5hZfN0uvfgqD+ZapbDHsy8AOZ9dSBhCW/U3vYfUl7tFjz0XYDZGw+V16D1MIcwXsF09F0dsVNp2MhhKA+ov+w+oo1kGY4i96RoYKIJDKmxybgu0+OJd9YxW4G+Nhl3VMcVVeO6+TxMZMOXT0ik0zzXn2yYzMWOQ7J2rGDH8CKsmuywTbRMlQNtDiz6IcSrEYQUq0KWEMygR7+hvCfJsTWMHfOYPm+Y0wuq5DRGmu2YZGe1dWtH2Ehguaq8kO5QDEA+XuYD3o3zrDpWQl6/dk/j0hGxRkb50TMW1l+hC1u5ltY7tZ/EzJXU532uKdNLHnQ8PlEUiViQwRhflp61jFswehZjJ0IPtudgD5Gcc+OgDr/MXPCf6pvtLfIYwAY+m9bgnIJWq56elQ9FmW6yEnel68au68V+ECRutsRtFIRxGNKWv166pfGY58eBOkfcM+WqTtyh+LvYD/wYbVxMV+wKrHmwuN2TtNT+tVLLTRlKOdncdbpssj+pYUcUrD4s5apdp1g+WqairNLHMC1RzvbzcnKn36m8MnmQ+qHLVeqGThc33xPPk05HpkvPiHmmczBdcU5KOaqGPhJZ6Pso/Spyc14LeR2R8smWn3r+XP3VdX/rNpfX2urd9px8fVbpmGW20zVVenkabnYoQJVzUq/UYUkYB6K+yN/t50huT35KT1W7kdNR1R6n649AyNtsi3koqhy7LaIpN2xyBaEaHKNBEQWY6zjKb6wRjZrZQGUKOtvZaUylKcuDmf9r77CIaqW3l5VEyiU3rmureGalE/uGnG0V0zxPpL09R5QX3ihTHplr7PpjljMZwgEaJGnMc8oNm3r3uUasOmIpv/rPmpeVuDalY9X1eY9r6ujlCbj5jkW/ZJplRbqiD+hzzLYEuTn5GXXL1HOrHhMFusyGTRn2dltTOhQlh6FcuHeU2zECOR5YZ3ZU9AkU/dD+fqCDUqUz66Xd0HfgWEPOTbpAo2ezN+1ap3ghF/oPTXea0pCOA2OaLWRx1YsxYPrNHLdqPQAV7wblpYtXxLC4fThYZCLtNSyE4kTwvliLeCDSp/VHKE5Z0gC09yhjL2rqT6vVhW43e85Ort2C+7B7WEIzECbDIXQ6HdwqZiKcilPqJVMM1q3R3Ad3PYZXakLFMAtW0WAKSZXT58xe4LYnRi1h2JuhHVMSr9j6DqJV4TGnk1Ni2MjOR8ZOOODoTRgUuoP6OtDKBTTEsluN8XURF6QqnTDUGt8YUiwCGTU+hCtLgKYKGBaNkzq0ZTuG7mgDctGG4ChTuGWQnAw+p0BnGbfVeuhjo0iBcxFQX7VT8DNzQmS8k/PyAfD4BPP5ClarAM3hc3BKvWQE2C5QXFOpcSI+rUAvumo/wxrU+8lNEk1eYOb68PyAfwsnALVykpD21d825ASINhzqA2C2FBs2ajaU64eGQRGCL5w2FbOjjmWdFqYjPUiVdJ8wv9IQI0MtG5HeNMioobdqMmpsjf42YNge20ZvHRvoh6nyJuPoSAITRsz6A8LlGzYCaqaFKN8ZvE1I36SxI6ijP/gGaQsE36mhKLjPzTc2qv57z1MYoQK0ziqH0+olgzj3aLJYjJO0MVPnnBtFTNJYj6GXcgL0yAmgj4lGSo4gZPtO5UDQnmrmKBQaNnoYKj9so6anVQ5HdeEJLaD1eIAdjx7KwgaK3rjMnqiUbToT/YVGkQ4qi/CPVqE9BYOGD0Npo8bDN1nx2qBkLjdCfjTKxc4q/7s8x4F7NALF7Cb1ZkxbpzOB7McxN/ApylTtFmKcJ4YUZtAjl21iYMrKvlmgvmUqt2oEVLmLPKoZGAlqiGLWwzdN4xyrS5h+T2/iYFa/ZBqT4jQaQY3ySww+Vcfw5MkQ30rl3hdTVy+ZvWmNQDrFaDbath50yL2rvdzWc4bZc24U+QmD7BaSBwBfIkPaV8P+cmbxGAbYB5L8lkP5IT/2VNdH6F1S70NjX2EPHi4LPEWMIKiy4MPtTBa5pWc2EHWCDYmqdMryoPNb+DxXSC6wTMhsKx9zo7KSgX9FG8lbBWThyUGgNi33RHaoGx7JOnXMGvxmOQ+ReTDOVXnX+rQllQZuIl+5cg7xcppdJc+htD0joKzwuVM3zOoXpWGf6XFN2IMP8+VSWHewXBKZ0IwpNVvpy4OHdaBgqV4en9sL3qQZT+XtrDjHqG/5cyS3Hvxq6rkmmbmp5Eezhm1w8LAF1VfkNkPOd2TU4A/w+/dv+PnzJ/3ZPGjIwhlDO8h/5+Va+ffvH3z79k3tHQf6voiz6OeGsYqOnwORl3EbgoM/8NZ8TqEj5+BcetkU+Z0Llt9hsPz2p/IDfdeOcPe9jkF/ZJApRswEEjMgUn69aAmvNAZ80FpSDLM/rJcMw+xCsw2baAIDCuKauQWzgJgMtEhm4MHmxdnGMjgvAP0Awqa4upjrg/WSYZgduI2hqAbCbkqmCtaRw2D5HQbL7zBYfvvT+KEohmEYhmFuh7s/f/5QEDH8/fsXfvz4oQ4zDMMwDMNcHzwUdaWwm5KpgnXkMFh+h8HyOwyW3/7wUBTDMAzDMI2BDRuGYRiGYRoDGzYMwzAMwzQGNmwYhmEYhmkMbNgwDMMwDNMY6hk2tNYSfe2zM0ktt86gYGDSQbnstFr5aRGr7eqvs97JVXjTLId0fAiH5JjW6KH0O5MCbTD1BfOUfDHW3Kp0SqdlbOl76/xkN3z2ovztif0+8l5HvhXDnJElDFGvC+t3gmr/uF8wqJAftmlDkptqPzq00rf6ialLuYxrGTbR+wLW9Md6Ae9cAuUsUWknZzJ0aAmJ3gzACyAMQwg8gFnPQeNG/X5k1uNXq4Ek1+ZKQZ/Ex/xkNx9c+q1qrZ/wQ6zzFRjXz0fmVdlzxLOPnRqN867k8xKGc8hl51bYR9/PWUeYUiIsm85dD7AVqSSaDGCcqehMpfzoJc8Zw6Yt2+gw8KmRBueCXo4vnTo6WsOwieB9sQbX98F317C4ZctGeB7KvR3LtzF2qG+l55wKYVC4PsynXWi1WmhPzLHMsN68nSo3M3gxDQc0rl5mLrjCatlC+UlvoVqYNKiz1o97D45xvdWOSP2un329eD/+21DqPnq7Gmro8C7so+/nrCNMMWK19N4C2tjW43tBBUt4RavGNSv6DVMtvwgmL9gdp9roVncEK/EW9sJe3xrU1dFqwyZ6B7mI7gjEIrun6CgaRHcaQxwfuuDmPi7eJbxRnek/pDr9Fjz0hWVzgk4EjRKskOvxIFUhMd8DNFi8Z3hGXSkEO1dyLLn+U6Wcos+N+mtXWkJfmdOyj76fr44wZbQe5hDGK5iOvqsjxSyH+MbsBTDvqwNMtfxUX+o9j7IvZt0p1ofV7Xp9d6CujlYaNnIYyoNHbIW6j2gjWYajROwBNTB67FC51UQ8B40fYkeWxEl0hrIjTI8z6mMZVMOVcdHJcbVsYybP00MORXkhookRf2LeNML0dZ5UvnSIingW6o1hBr1cHrYk91f74rp0fvS9049l3vfOgUU/hHhlVIA9aInefQOftszmsMlcPZPtLb/7JLx441f1y/IVxmsX/KeyLgvvod9aUjW5rNwAPuB9SHmQ8qk3Jh2BsInEUJf9ufCmQh/ocJGuGiFKkijC/9KbOn7hFOlwoeyFXm7lbqsz++j7pdURRkEeBPVnKVhO5JUtr+c3SJX8xLC6C/eO2md2p6aOVhg2chgKvEf5dtV9RBOnaDhqAYPBB9w/BxCmhxdmPRi83MOziEUIwFvPYDzoQAfPfZzLYz42tOPBtqGTWLwNyzeYuS64GeMqhA/hUUo/bj4v1Jg6YxD5oLWxwqAPm3E6/gQ7vwG+hdDYJ/4exyEEbewAVL66UxoPJeeXirGY79CgrscweAX1vKEwBmY9bSjI+4oxV3FfzJvv7u4Ziz7RfDHlcGpaMHrWblRpsLh+ebyJHJfHRtEqvwIdQp1Z3D+rMWm6X8GYdGJoLGEyVPcRja/dcyWMdjSwkvZ58wKvb48wV7pKeqnLfwsecxxw0lvunMukXIdN2ev60N/qZdAWcUs20Wco1fcCvqKOMEeAygIb0op6zhTRhu+o1ZkXhqIXKGZ/aK0o2n79+oXthUHox9gdxF6g9uMwxvYkxt4L/9qCjUyMjWWcnKbANtR+bs3r5f3d2Fcni/MwM5QHVx8MvMy19rSCGJvz1HNIsnmR57jmSWmMe2EKUh6pa8zns8lApqOeKydjJP17Af/995/6S2FLhzDSEvmxyVqQfx7ClKm5L9PMpmt9bvyVZGymT9jLDY+HQRwE2VTs+dF50JuLskhfZ+qAfFatRyK/Zr6E7LbXFOXxUsnpCJHT4V2eS9WRlGKKa3fRd2Tna/asI4dild9NkC/nBEN/zLJMw/IzpCJkp9omP8C2LRTtm0dtrqX+3a786lCio0ipx0YOQ5HrbOtyF2++XzU7qvUA/SRgWXqPvMeuyMP6IxSnLCmwRHuUilDejFkv7cq+AycT0t+FKbaw5A0gN3hnOIHJV5jR4hkBNm/b4RURV+L24WGXN6LWd3wXwHTqjTkdle6TnOFUFTMjxuXJW5D2xlTQanWh280Kwj68humqt3naQjHZIO1d6AKNpCaB1GK824V+mZCFh/K2oRkIk+EQOviG2emUz0Q4GceqI8yBLGHYI69sdWwcU4QLfkgxIip4GNu36ZzazxmcbI7HDVJi2KhhKDRtxmm3uzAGvmp2lBxCkC5nGnKSsT6thz64YlhBxlGQsVMHfONLOr5kS4/Rd6ewok4xfIY+LGCBHWM6FuA06OGcHjja4Fq0IdhlqKsEGXzbhpOOULVGQm6rMt+0Chj2gkODRuvRGj0LoyQ9I0zEiKnhKDkMxR1jMZGIS3JePgAen2A+X8FqFZzJ0DttHWHqEU1eYOb68PyAf6thX/l6CRDSvvqbKcC5Fy+AOc74UtpUig0bFcHt+jImZbvR+Dc5bb5mfFsYMesPCEV8zT2IuCuhCGjhTiiP0tgppVBxpBdKQxWVICt6NMWGnDw4pd6pY8y8obegDfTDlIxX2Pnv3GJLj0S2XIwYqbMh429QmbbxLHVIBfemqWesSXlgoW/lITww9GakPmGQmUFmgXROeCzV/i2RzOCYwgiVEV8uz8ix6ghzCCEFM67HmRizHr3o6mOVwVc3jhqBSCZbaM4SH9lsCg0bPQyVd9WrQMwvHY6aQY9coElHJDutzQLzWKvT7sITWmNiarIeXqJZFndYGRMlW8IrVk6aXSXPiGBp7UA38IlppA0i2LzBMnNgFxy4J2V3ssNknc5k54AyOWttDANsYMhIW4oA2gKPFv6u37rEJg4qQ42CgcUzYhqTIQwyQ3a7owOGPfmql70vboWoIYhZr5Pkh2YtUX7quMOde1NP1XDUy0AYxM+mhwmfe6hkRwHIQ2GMWbw6qbzr7bqw6LBJ8jKg6geePBniG7vc+2KOV0eYcqQ+qx0IM/tymn52C+ktF19YQtrfYYi5qZTJj9pX7XkUMzvFbxMYOvL7YzzJrB7lMlbYg4ftQcIJRjBfUfChLSjQFmxWdL1GpGMGCqpALDPesyyt0PdEvuk62ihQOPN8+FwykEttrmcEJ6JcPEqfflPPkFwj82c+X2VgpA6CwrwEgdp0Ps3rUhQFloWY9vYZzQBaLUvLlghSB7PRRkFueL0tYLCkvIj0cxfeU2wpuVnTDPF6N/tM2UIpvtYWdKqOmYHCIo+kD2kdwfJPi0/eR/2W2U4bxLovdh3J63Ch/NK6JOpCNuCaENfupO/7XLNfHTmUmwveFDJX5Z3eSmRslmUalp9dfmGQ7Wdcj+VXm5oyviOjBn+A379/w8+fP+lP5gsR09AXfQiN73EUHdf8+/cPvn37pvaYQ6FvqfQgaNRbZ1N0ZN86cihcxw6D5XcYLL/9qfiODXNqxAyf9Rhe0z71aAmvFOBQtY4Sw9wAXEcYhtkFNmzODS0QGXiweXG28QPOC0Df+Egdw9wqXEcYhtkBHoq6UthNyVTBOnIYLL/DYPkdBstvf9hjwzAMwzBMY7j78+cPBRHD379/4cePH+owwzAMwzDM9cFDUVcKuymZKlhHDoPldxgsv8Ng+e0PD0UxDMMwDNMY2LBhGIZhGKYxsGHDMAzDMExjYMOGYRiGYZjGwIYNwzAMwzCNoZ5hE02gQ1/77EzUKtCMJIJJB+Vybcv104qylG/1FVex0qz66RjQCtydVPp3nQ4My5ZhPoJ+RRO8p77fHd5vsmNKmGe6NleUKm+06rvc7Wyfy9jMc/R+Dq5PzIVSXY8irCqpOlBVt2+KXWSzhCGeU9hGMBWUy6+WYRO9L2BNf6wX8M7lUM4SjYbJBRs61IE7Y9i0AwjDEMLAF8voO0cyzqhiO70NtOlz95Q+bkGfbuEUGoCH6pdYDHGM9wzk/cKgDZuxs1uj0X0C38V8vmSNjeXrGNauD/NRekUiDwL1bOktew4tb/SK1S+PSFP9ffXso++XXkdulOp6RC9yDvRmAL46R9fta3u3Oz71ZROh/nfueoCnMntQS370HRvafv36JZb7zhPG2ODHru+rf4sWsL8BxJLpXhyoXS0b8LZHAo+WUU+fcxr2W9Je5ddY4l0+lxsfXLRqSfmUOBJC3y24x6H6lS8DQtzPfM4qQj9G22abf8vzyOcoL195DumB5XnEPdzYtZXDkbHqSE6HD2Mfff+qOnIo+9Wxa6VGPSqo36I8Lbp8U/KrKRvdDnrY3nm29iHFbelfPerKr9pjE72DXER3BGKR3cV75o2WydKdxhDHUzhsaT41xHXsoQpVlt7zKLsicneKeV6B4XDYEczzC9rQrg9PlodvjZ7B91CBQuOJLkm/WiN4xtoivTblz1ONBwG2auvxALaOI0xzMIa19wzP+KxNYB99v+g6wlTgwaNRcN0nH1z25iPVsmk9zCHEtnY6+i4PMDtRV36Vho0cJpAF1n3EVt+iwCKmgBoYHbuhfG/LofxbxFwk445D2dCn4zz0sQyq4cr48eS4WrYxk+dpd2lRXojK8eMI09d5UvnSQ6TiWcjPCDPo5fKwJbm/2hfXpfOj751+LPO+dw4s+iHEK8MAqaBI3skwb/iBZenCvaP2C9iv3EL4QAPF7T8U5LkLo+kURt3sr3X0q6xcUNVhJKyRnijPKMIN8z0YY6ppA06kkRr/LojD6U4D8NZjGAxfYbx2wZ8XlAHdJ7Op42nE8NYaxq+qsJcqzf0spYMp0uHCOlNDZvvo+znrCFNEzXoEG/i06TrW4o9Q/Xmz1JBNq8X6egh15Vc+FGW6JwOr+0e6K8m97sV+ECRuN+lyxvNdPw7CMA5Deb0+Vx8T97C4MqXbKeWyJncfXZsZ0pBp6iwW5SVJC+8p9gNj2CH1rOoMw42IedVufJFvecx038r7b58lkYGnZaCuSZ5L7rvJffNp2LC5KWV+3dijtMS9DNkm+UeZ4XmUL7GJshBJCPYqNzWMs9tQUh39qioXAo+J8sXjanP9rTy3aWyvkWWZdx0TUlfkPU2S33KbLk99jtoX9yF9VeWsni3/DMcnryNYbjkdVvnN1Zl6MjN1tVrf97lGyS7RgXwap+D2hgKq6pFuB1BPVDkFvifqPZ1rVpfbkt9ustHnl7WXPBRVRrn8yg0bM+ZANTBmg5JpyFPYGm9bg1R0vbz/1ogR52FmRCOnD+qGWu4VpCWFYCpXNi9KUHkN3GLcC1OQ8khdYz6ftQNLOjv8OydjJP17AYWGjZn/dGek/qa0PWqwRAXE5850IiqdXcvNatjoDiq1pfNXS7+qy0V2jJgPfZE2ukquSdK1CFmmZ+ZDYtevLOY5SXoVMj421oYxp8P1nkmSl5mpF9bnMvR552v2rCOHcmsdi9RT1AMtU1s9StoLuckXHakXZnW7uY55B9mgtAvbHw0bNmWUy690KEoOE9DQxdbd/tDHJuarxlNbD9B317AQN4vgfbEG77Er8rBWvr3l2wzr4mP5eH30CRv8Z9ZLu7LvwBmn56Z0YYo1m1yx5AbvDCcw+YppjOIZATZv2ynX0Sfm1u3DwzF8lt1HwKdK4YIf0hhlF1rk1mvhc899PDoDzML+tL5DPmykBaO5mmERBmLWUZp6+lVRLtEEKBTGC6aQjHLhM43omWYvmSFOiqafDIfQ6WA6nYKo+uUQejOUkU9j42PQo0iHIMbZ8V/XfzowruTrqSWzU3PqOsLUr0fUXqwoRkpuqxXFSsn29eZh2VwMJYaNNCRofHDsOODoTRgD2tg4NS1pxIiAUorhkLEYrYc+VrY3oGaO2jcyduqAVnOidMmWHqPvTmGFx8LwGfqwgAVNUU7FApyG7di2ow2uRRuCotiOQ3DuRQebQxklG/sAcU0cuBc2iRH8K4wn2kDG4CQBPjvoV1m5lMYN6bFtGYflvHwAPD7BfL7CRicwDD4CzxOt+zOMRiqQuDe0TtneidZI5H91WHT2F1NXZl/BF9aRW6VWPSqgZuzeTcKyOQvFho2areL6oWEMhOLN+6tmrwgjZv0B4fINZu49dp90kDriGbxNKI/5SPQchR239BJoyGtAkBdjNMWGnDwFpd6plpjJcxhLGPY20A9TMiZL/1gtNslNVyzlAUuCWTXKo9X+fshNVedT5OVQ+ejrV+wd9Ku0XISxZml40w1KMhtMBi+TkWUjmgwywb3S0zKDF0uQceOpKbOv4cR1hKlXj5b0EctObqKH8JrfuveMZXNRFBo2epgg6YgSpBelvMM/IqIznkGvh91iMuOmCzSBZrPAPFYNQwm68IS9pZh6q4cxaJbFnQNO0gsv4dWRH6OSZ0SwJHcQmkTZ/n4Dn5hG2iCCzRssMwd2gTwd5LXIDpN1OpPUzJ8dmL3AkGY0YX4iekYxZVlXrO2br/jasDhnAkNHfoTu4Mk63SkEHpoCPcz/kPJP6aMcaTYalR95QpQs6+tXRbnoKdo9mkUj7ydmc9HsH/3ciWGryhrPmQxfjGEVvA95i1J51Glnp2w3AYsOm9SS2Vdx5DrC5KlTj/QsvwHNSpTnLIcd8VG63Cckbo0dZCNkm+htaOwzVdSRX4Fho4YJCixN4UWxWfcnQXtFsp0gTQ1er2XMTR1aoxWEflsOY1DD6PRg4wUQTvX1XZiGPrQXaOyIhtOB3qINfkjjpApSXqz8Y0zDGcihEHqr97C57zn7dn5qmjTmJQjURjdZj6Gn7rET2DE/3b/BQAztUEyEl3XZo/FBXxtub3pq+GeMcvAhPNK02e4U5UwelQ3mX6RPcpRfM10lst5Fv6rLpTsN0aDCW1K50D3x7R6obJNnUnE6Y4rTwTQGrwBP80zMz3KoZJXkUSKmf2Necl6ua8Wiw3aqZfZ1HLmOMFaq6xG+GK1C8Nubbd3eUF2Mwag2N0hN2aCxKGQr2mZSYdUOsx7Xo6b87mhGFP3x+/dv+PnzpzjIfB30TQ9n0c8ZFkXHNf/+/YNv376pPQl9D6QHAcTcyjCITUeukX3ryKE0RX7nguV3GCy//SmdFcWcnpb43C7FpaTszWgJr+TRaH8/SYPNMNcE1xGGYXaBDZtzI4aGPNi8qCEy2pwXAFpEkj0vDMN1hGGYneChqCuF3ZRMFawjh8HyOwyW32Gw/PaHPTYMwzAMwzQEgP8PyPbbnRzlTRAAAAAASUVORK5CYII=;" vertex="1" parent="1">
          <mxGeometry x="440" y="10" width="566" height="192" as="geometry" />
        </mxCell>
        <mxCell id="Bwvvb87Q9qxr3h32M2CW-5" value="" style="shape=image;verticalLabelPosition=bottom;labelBackgroundColor=default;verticalAlign=top;aspect=fixed;imageAspect=0;image=data:image/png,iVBORw0KGgoAAAANSUhEUgAAAnwAAAHDCAYAAAC+mcdrAAAAAXNSR0IArs4c6QAAAARnQU1BAACxjwv8YQUAAAAJcEhZcwAAEnQAABJ0Ad5mH3gAAEYOSURBVHhe7d3PbxvZduj7xfsPSM7EM/dpwIAsmJCIJIOeBDIyOUl6IBkCjMB9qMAPZx4H90EaBTpCRhRw0T7ze9to6Vi4MKC2NHDOzeS2G5n0ICegBKptAY3rbs/6DV6r/4HHt1bVLmpXsUgWfxar9P0AZVYVN3ftqqLFxbVrsyptJQAAACit/+IeAQAAUFIEfAAAACVHwAcAAFByBHwAAAAlR8AHAABQcgR8AAAAJUfABwAAUHIEfAAAACVHwAcAAFByBHwAAAAlR8AHAABQciMHfG+2RPYqOumjeW7zOr26CJd7ebsff11e5qUdg4x6nCfpdKsilUpN9me4TQAAMDkjB3y3q+HjgnuM3LrvZnpY3hbZPXELI3pe04DNzY8qaEdL2++W59Wox3liLvZl97whrXZTtme1TQAAMFEjB3zLS+HjgntcXNV/dLodLmJC5uI4rywJsR4AAMU19jV8i3fDx1sr+o9Oy+HitQuRZ64b0qZn+259QtRV2ZlSulpf1cLnPpyJvEyUT3ZxZqnP55dPa+Mw9UXtDCbLRp6m1KnrYvXp9MY9lWbgcTYX+1KrWPdrRba0fgAAADN6wKcBiHWH+l2LyW7HINjTdbW2yK6bai0Nbjbc854nXhmbHunrgmDJPW8eNsPn7qzq84nyDxMpqCz1RSyYW9R2RWWtjckALWt9Fuxd7Xlldf5lcn8t2NtN7INus6nt6Lo2L8txBgAA6KPSVm5+4iz4uaVB2gO3HLEBEy8twDpwK3ro9Xq7hu8TXZ+a5eqjqz4XkH6kbUkGjFZWXnSv96W1b9TXRZ5vaXA54LjM1OmWVI43pX2w7lYAAICimWrA1zMwswzXcTzgs9Go3xy6Bc+atm6UgC9TfRbwNUSepgRYFpR+u6TBl4tzhmpfReSDmzcriYAy+XyMZS8H7Nus2OjcjcO6nLQPhHAPAIDiGvsavkkIgil97HRvumnFBiiMIO/6kt2/V1UN8hLX1Fmg6JfpTHMS7Jn1g7a0T0Q2uCAQAIBCm2rAt6jTT+FszNtLN+O8Pxd5NMFuzKHqO9SAzs363h1dD5QYt31PNGj6cOwW1Md1rbMoMdTdqiUdAQBAgU014Hv4QqRZiw9sCK7f23ELjgWG7/zBCtbVWhE5P3PLCcny0Y8oR4HbUPVpNGODJfygzzJ6Pz6+7obNXJ91VSf217zRYO/OpltQDyx43JDuARo9Xp8Zo3QBAECKqV7DF7Agxh+lWhfZ1eAnWKfBVnS9WvK6Nuvy/FmDHwuqktfARYMtfnGLade9Darv3msXeFp79NGvb8Gu69t2C06m9iX31Umrz3Rdy5eyH0OxgK+6IxaH1k/aMpFxFlZnY0maDNoAAKCwph/wodgs4PtM5EVzmx9fBgCgoOZi0Abm2P1t2VvZkSr30gUAoLDI8AEAAJQcGT4AAICSI+ADAAAoOQI+AACAkiPgAwAAKLmRAr5vvrEbjQEAAKAIGKULAABQcqXN8Nnt0ex2a3v6aOyuFrbcdTuzabA7brjtjXWrtBTRbeSi/ZqmzjGcwn6MK9fz61zs17iNHQCgEEYK+NbW1tzc/LpdDR8X3GPk1rRvF2G3fdsVedQW2bVpT+TlBIOz5W2t88QtqE4A6KbnLviIAqBgcsFabJ2bovJJVm9Tj12wD1PYjzSxANNNvQK43M5vx6k0dlbkpD2hW9gBADBFpc3wLS+FjwvucXFV/9Hpdrg4NW8aIjX/frgaDDzSoGRamadOAGj3BNbA7IkLPp5YkBatd+0J1um0osfB7gXsl0/69kjk1/79f7WchfnTzKA9OAjbFLTb2qjH8sfX4XNJeZ3fmNWq3HWzAADMs9Jm+CKL7hP51or+o1MnEJuS9+fdQYcFJ12Bi9/t66Y37qkYyxh6ZZ7tu/Vz4lUtvg+xdkb7qGVe+V2w3j6lZRjfHIvc2dMAUAPOBQ08+3UlZzq/dj/gSoXuVwDAjVXeUboaCCzog9/Fl+z+y40FQn63r00tkaYGQLEMmgVG2uaaV66m5fY23PNT9MljkW8TwdF7nR6mdJlG2cJoP+y41yw7uB6uu3MmonFwMG9fFfZ0nz7Sclb2F92XWKCr+9w8FPnYZR4/1iDunX9MIvN8fgEAmDPlzfBpIPBUA4wHbtG6C5/6XZQ5eqXB3prf7Wtce68ablm9+iwM9qJ9MLYfj7wy02JdxYvazihjZ9PijnvS81D3w2/fcxfM+eusq/WRttvYtXcL2v4gcNTpI+uK9bx9rUFg/fr1DzZ7dOsOc37vb0uz3RYbkD6x6+0uLoMgFgCAIihvhi+D5ICH2OSNSs1aLqurMz2GaXXp9EGjiKi+K53SrkmLrl+bJhtAcbXnsnZuutIAtN++2qCQRQ320rKAWb07ErmjQV6HBmgLGmimdnfnJBidWz2Sxy+2Le4EAGDulf4avn6CAQ9eQBObvAxc1nLDiHWD+tOI9Y3Lglr/ejq7FvGTRDasZ/eqsmv55GS8YM+6c3/UYPjDRiII1qfez9G1d/e3m9JuPZajz/atyQAAzL0bneGbBguKfnLzERuE8NGnbkF9XM8WwCzqlKzLvL10MxF3PVuaka9rSxkAEf0USpJlA3983HvEb1Y2wll06gqC7Vo/PYZz5f6SHSIAAArhRmf4puHBjkjTRqJGbBCCPviZL7veTDYSAzSMDebwuogfvtDXJrqMLRP3MnktndZtCbbkCN7nuo1g8MQIPtYp2T77qZZ7iQyeBXv2e32x6+dsP/xjkNH7w3hg3KHb/Oh8jG5dRukCAG64kW6tZhk+gr7ekkGZdd/GBjE4ds2bdVd22OCGZJeuBU/+qFz7Xb1Nty5R3oKvbzRoiqwkrqfr2l7CnZN4li5ZPlmf6Vmn307HXn/vtTs29rwGvtYVfH4WPt/h7VfyWKa1YSAL+Ko7Ypupn0xq4MapbNUuZafJdXwAgPnHvXSBkWjAVzmWzfaBjSsBAGCucQ0fMJJ12WmcywbdxACAAiDDBwAAUHJk+AAAAEqODB8AAEDJkeEDAAAoOTJ8AAAAJVfKDB8ZSAAAgGtk+FBowY9N66P9iDMAAEhHhi8nFqjsVa5vQWZ3rLDlrtutoZDsDiHB+XW3xrM7itjy81n9Zp93O7lKZctu2AIAuMFGCvjm/bZqRbjt2+1q+LjgHiO3CnifrueJ+/2Oa5j67L7E85jdW15yMyvxW+Ut3nUzs7DakFa7LW3uBgIANx4ZvpxEAcGCe1xc1X90uh0uoug0sFvQhyigv6WBX/DIjXcBADngGr68nIrsbYistEQeahDQ61o06+r94OYD9UQZV48Fi4+aIt965e+ciDyJUjtZy3msG/L8zC2oqK2R5PO+ZNmB+6GGqS9WNqUuX9/9GOG4BOfq0C2oNa2v2RB56rfhQuSZBnsLrg7r4n15FG7Dz/iF7L68G2JVrjZa0tz2dnRU1qX7mciL5rZMoDYAQMGR4cuLywD5GZ9k9655ouH4rjc90jLRdWEBDSZs/R2d/TcNVhY1+AjK6uMvGsi8CUtlL+dYgHa158q46Uq37V+D9lCDl6BOC5a8cjb5wZkZuB9qmPqisrsaUPUzcD+GPC4W7DX19Z36tJwt/+Ke79D22vmNdeEmuncBAJgVruHLiwYETzVgeOAW7Vq0p9tuoY9lLWO9gz+Fi9fORD7S4KMTGOnjrxsi770ALZChnGWjJCW7ZUGb7Ga/vq6fnvsxQUPtR9bjp6Ju+ICWs/OYlmG07UT12f72zkKuy0FwrV17Mtk9AAASyPDNuc5oXm9K7fZcFbmXJVbIUO7dkcjHiSAp8rFGae9GGEmceT8maKj9yHj8LDBf1GDR34+ZjbwFAGBEZPjmWOe6PssgedOKBidFUpb9iHS6k91kAeAzyyYCADCnyPDNsffnIo96dgNOz73H6V2ZxtqUKZPoKct+9PLwhf5zNJmubgAApoEM3xxb1CnW7WgjP2fQFWrXm0mPAQuy1z3wINnO6EeHo9cPux+D6stq2P0YyLU7Wd/b1/qPBpejD8iwUbrhjyTX9v0DBQDAZIz0syyWQZvnoGre2zeM5M+ZrOnZ+tn9zEjw8yLfa+yiQU0k+skR/6dIFuwnQ5YylrMgyVhwkxh9Gnvelyy7Kl0/PzJwP/xs24D6gp842XELScltD9qP0yGOS0pdgQE/CzMYP8sCAJgufocPKCMCPgCAh2v4gLI625Eq99IFACgyfAAAACVHhg8AAKDkyPABAACUHBk+AACAkiPDBwAAUHJk+HJABhIAAMwSGT4AAICSI8OXg6Jl+E637LfcasJdvwAAKCYyfOiPOzYAAFB4ZPhyULQMn6wsEewBAFBgIwV8a2trbm4+0T4AAIBrZPhyULgMHwAAKDSu4UN/p1tSOd6U9sG6WwEAAIqGDF8OipLhC0bnboicEOwBAFBoZPjQHxk+AAAKjwxfDoqS4QvcrcqqmwUAAMXEKN0cMEoXAADMEhm+HBQqwwcAAAqPa/jQH3faAACg8Mjw5aBQGb7727K3siNV7qULAEBhkeEDAAAoOTJ8OShUhg8AABQeGT4AAICSI8OXAzJ8AABglsjwAQAAlBwZvhzQPgAAMEtk+AAAAEqODF8OaN/43myJ7FV00kfz3OZ1epX4rcBXNVfOKzuSU1eH1vfWrZqEzn4MqPvtfrxMtF/PtV3T9Ha/ptup6Hb3dbsXul2d1+Vpb7fL6ZbXjimYUv1vtsLjNajurOXm5nwAKJyRAj7uVTse2je+29XwccE9Rm4lbgfysCmy29bpxK0Y1XpYzx23OCkPDlz7Wrovbl2a5SU3s6LzbtYs3nUzU7K8pBs0K0vedldj240FK/60NcEoZP1Aj1Gj7zEai9XfPpnC+W1rvToNaHvWclnOBwCkIcOXA9o3vigAWnCPi6v6j063w8Xy0Q90CwSiAPeW+9xPBrgTd7fqtmsRxX233ZXYdi1YedRYlTsnLmhx06Pq7mSDPmQ6HwCQhgxfDmjf5ESZjeCDTyc/+zWMqEu4Mw3o/h3YVXwh8syvT6dkd/MoogA3yHD2DHBPZatSkYpOtQndD29hKYwobld1o6vVTIH18nYzCPqS3Y3JjGB6d+SpnhOvXM/AMV7ume1vWvfsxb6ej+tye5Van/Nx3VUaTF3bTjxv04S7ggcZ5XwAuNnI8OWA9k2Ay3j5mY1k9+4wnli3qjc90rp6XVP3ra6/2kuU9YM+C/Z0Xc2rz6YrXTfytVa6n7a/sa67MQLczO4v6XYTXYax7sT+lj99LL8cRzsdBkrNakuPR5QJbMnirgvUOiyI25XFViJbWN2RX1yJUHe5Wqsqz3bPZaGh22huh+20YE+3WXNlwmlPz0dasNnS81vV83tdtjtTeV8eNv26dNprycvKlrxxJaZmzPMB4AazUbpA6Z2027+ru/mMvlptt79285Ev9H/MF1pX0tdad7Te5r9qhfNJX+lz37n5GC3/uW4v9bkC+K6xmnpc2q2G7lcj3K+TevvzRtqBaemxrneO9df11fTjp6//XVSX6rXNr+sS207P+my79ev67E3yhf5J7FVn6v55em9H+cehn6zlAGBIZPhyQPvmT2y0rJvOz9yTvlWRT9bdvOfBpsgvl+H8z+f62mp3fUGdhyI/hcVunDfH5/LRp2kXm92Xe4/P5X2QRLvQ49fjmjR3/VroQt4drcjHqeei7uaM1Xem5yPRBRtMVT0frfj5WG30OL91Pb/XWcjOaFlv+kbPLQDMK67hywHtmy8W7FmI63e/2rSiwd2oVlrd9UXTA1fmxsi9y3FVz0eiC7YzHQx9PizYe3n0WB4l6lrz40wAmDNk+HJA++bL+3ORRwduYZAzkXcpF/u/ObYL6cP5e49Ffnwdzt90b18fycJmmDJ7sLmixyVtpISfrbORp+fyc1qx71veNXx+VjDuzbGfarNydj7SKkxxdtTj/B66gRJhW9ei6wPn2cW+1Co2eGdLUg4TgBuGDF8OaN98WdQp9iGv8zbCtleX7o/V+Ihb+1FkC5GfuK7A5W2Rj45SBmi4eqd+Yb9+vE96lO5ITrfkZWuvc1xkfUePy2ddo2Pf7n8mPz7e6WTaHhzYgIrEAAgbebsR7zNd3t4T2YiXs+xb8zyeml3efqHbraacDxu5m9hOcH7jI3itzm/kxO2HBaSHiUAzHCk8b126Fxps21t4tbFjPyMJ4IYb6dZqlgGa56CA9o1n3tuXlQViL3fcQpJ+sD9qXo9ytZ9l+eDmzZr+r/i5FgZ91j378HvRgEOfcK/71i9fF9lNyRDaT7ckg0art9OFqEFDUGcPsbJDsYBvQyz+WG20pLmddkHc5NjPrKQGO6sNPVbJTJgFRxuxYy31Ez1+iZAkGFnrjcq1ul6I/Fuwrq7HxnXFJstZXZvH8uxyR57G9ttGCFcT58OrJwoogzYv6fn12tjVvmRd1mXclFuN8DjY7xEGwWFKkHotZdupvHJDOtXzsnFYlxN9PQEfAO6lC6BcNIDqDvhumjDoP59BwA+gGLiGLwe0D5iWC3m122s08A1yeiyHUpc9gj0ADhk+AAXW3VXb6VIFAHSQ4csB7QMmpfuuFwR7ANCNDB8AAEDJkeHLAe0DAACzRIYPAACg5Mjw5YD2AQCAWSLDBwAAUHJk+HJA+8b3Zktkr6KTPhq7U4YtJ2/bhXR2F5Lg+NV0XpftriC23HX7sWnp3OeVe70CwCyMFPDN+223aN94inBbtdvV8HHBPUZu8TuzQfA26H69y0tuZuX69nJm8a6bmYXVhrTabWlz6y8AmDoyfDmgfeOLApYF97ho98vX6Xa4iEE0sFvQhyhgvqWBX/BIwAwApUSGLwe0b3KijFQQsCSyVZGou7LThXkq8mzfPRnRdZ0ybuqVJYu6j20K6kl57atEl2n0mq7tXug691zntX63tPe8tcffl2RdUTe33XXiG1cmmnp11UYBc5Ax7Rkw231Zw+7X2j595gBQRGT4ckD7JsBlqPyMVLJ711iAdLUnstt2k86/3HBPRixg2xV5FJWxqSXS1EApeU2gBW6L+lxUrqbzz/S1C43rdSsaOJ0fhfU9eqzb09fISfjcwo5XpwVz2uaae100Xem6ToCm+/dU11mdzcS+xOpSDw7C9VZ2zZWJpq67T2i9dvxiXbg9AmYAQPExShelZgGfvBB52Ker0srcamrA5JZ9z7c0WNJAythAh2+XuoMny6w1NUh7uh0ux+qzYPJYgy5Xh5X9WQM1a48/n/RKn7unr4kCsChwjW1b6352eb3dSL/9mRs2aOMzPTXNbYs9AQBTRoYvB7Rvdh5q4GMZM797M5m1u0rpAo2mD+dhl6x5dyTyccroggebbmZIP2vd54m2RdP5ochPrlwkbdsAAGTBNXw5oH2z9STRvRnrMnWSXaCdSQPGaXZzrnjdw8lprjN0AIBCIcOXA9qXrycnIh+O3YL6uC7yPhEAprn3OL3cG6+uYVh9P752CwAATBEZvhzQvhmx6+dq112yEQvQ7njdsDbYQTa6u3qTr1+2a+W0nD96167ra567hSFZfR8dpYygtcEclfh2hmEjlmOBqe2H1te1f5kxShcAio4MXw5o3wydhaNk/evjbIBFcuCFdfsmr/ULRu4munSfuNG7UZmXuvx0zz3pArXoZ1E6gdyhlvUCR7tuL3rOrjFc1O3EtqvP28jdoEu3R53BT7Bo8PnLjj7qvC8KYDv16bx1WfcbuAIAKDdG6QLj0iAsbbQs+mCULgDMFBm+HNC+cnm1K/LRp24B2Z3tSJV76QLATJDhA4Zkv3NnXayROyfdXcQAAMwTMnw5oH3FZtfd+T+fQrAHAJh3ZPgAAABKjgxfDmgfAACYJTJ8AAAAJUeGLwe0bzxkIAEAGA4ZPgAAgJIjw5cD2jeeQmT4/v233q0uoukvRS7d8+M41XomVRcA4EYgwwdMgwV8/+//LbJ+z62YlD9qsPfPIos6+zf/IbIUrgUAoB8yfDmgfeMpRIZvWk412PvVv4QBHwAAGZHhA6ZhGhm+y2ci/7MlsvvfRb78S5FPyPABALIhw5cD2jeewmT4msve9Xs6nb5zT4zo238SqWkQCQDAkMjwAbPypQZ9i29Hy/pZxvA/qyL/+DRcJsMHABgCGb4c0L7xFCbDl/QP/yryw/9yC8N4p8He/xD5cxfsAQAwJDJ8wMz8UeT3l9dZusxsZO7fufmEv9b/vn/l5gEA6IEMXw5o33gKm+G71GBvcZQ+2L8V2dXAzp9+9Rcif98j2LvYl1qlIpXKlpy6VQCAm40MHzBpwWjaP2hA5l9j57J0qRk5L4NXy3iNX59r+C72a1LdOZPVRkua2/fdWgDATUaGLwe0bzxzn+Fbeiqy+y8a9HkjdO3Hkntl5IYR3GVD6/vhT2H9/+7We75vnem/ddkj2AMAOGT4gFI5la3KhpyT3QMAeMjw5YD2jWfuM3x5Oj2WQ7J7AIAEMnwAAAAlR4YvB7RvPGT4AAAYDhk+AACAkiPDlwPaNx4yfAAADIcMHwAAQMmR4csB7RsPGT4AAIZDhg8AAKDkyPDlgPaNp1AZvi8rIr9/5hb6yFpuGNFdOYLpt24lAOAmIsMHTNw7Dd6WRa50tva5yA/6+I9Pg2fispYblrs376/+VeQf/tatAwDcZGT4ckD7xjP/Gb57Grjp96hdndaX3Lo0WcsN6Ut3316CPQCAM1LAt7a25ubmE+0bD+0rsMtnIot/EJlg/AgAKD4yfDmgfeOZ/wxfjt5psPdn9+LX7335R/ckAOCmIsOXA9o3HjJ8A/yf34r88Juwq9imxX8m6AOAG44MXw5o33jI8PVx9afuwR/r/6FB36VbAADcRGT4ckD7xkOGr4/FvxD51aZb8Fz9QYSYDwBuLDJ8OaB94yHD18e934j8cOwWfDUGcgDADUaGLwe0bzw3N8Nnv6/nBmKcvnPrEpaeamzXjF+zZwM4JCXrBwC4Mcjw5YD2jWf+M3z2g8ouMLMfQL76p+tALXY3jazlhmTX7InWF9VlAzj4TT4AuNG40wYAAEDJkeHLAe0bz/xn+AAAmC9k+AAAAEqODF8OaN94yPABADAcMnwAAAAlR4YvB7RvPGT4AAAYDhk+AACAkiPDlwPaBwAAZokMHwAAQMmR4csB7RvfxX5NKpVKOG2durUAACANGT4U2+mWVI43pX2w7lYAAIAkMnw5oH0AAGCWyPCh2MjwAQAwEBm+HNA+AAAwS2T4UGxk+AAAGIgMXw5oHwAAmCUyfCg2MnwAAAxEhi8HtA8AAMwSGT4UGxk+AAAGIsOXA9oHAABmiQwfio0MHwAAA5HhywHtG1/nXrobh24NAADohQwfAABAyZHhywHtAwAAs0SGDwAAoOTI8OWA9gEAgFkiwwcAAFByZPhyQAYNAADMEhk+AACAkiPDl4NiZPguZL9WkUptX+cAAECRkeFDX/YDx42lpnAjCwAAiosMXw6KkeG7dn5Jjg8AgCIbKeBbW1tzc/OJ9gEAAFwjw5eDomX4AABAsXENH/o73ZLa5Y40t++7FQAAoGjI8OWgUBm+9QPZa1UZrQsAQIGR4UN/ZPgAACg8Mnw5KFKG7+Ly3M31oUFhpcJv9gEAMK8YpZuDso3SPT0+DB7re9tCHhAAgPlDhi8HRcrwDXYhQRJwtSE7/DgzAABziWv40NfpVkWON9u977RxsS+16o6snPQpAwAAckWGLwfFyPCF99LdOO+fubt4fSRnZPcAAJhrZPgAAABKjgxfDoqR4QMAAGVBhg8AAKDkyPDlgAwfAACYJTJ8AAAAJUeGLwdk+AAAwCyR4QMAACg5Mnw5KFqGz358uVKpyT43ygUAoJDI8KE/u5PGZyIvmtwnFwCAoiLDl4OiZfhkZYlgDwCAAhsp4FtbW3Nz84n2AQAAXCPDl4PCZfgAAEChcQ0f+jvdksrxprQP1t0KAABQNGT4clCUDF8wOndD5IRgDwCAQiPDh/7I8AEAUHhk+HJQlAxf4G5VVt0sAAAoJkbp5oBRugAAYJbI8OWgUBk+AABQeFzDh/640wYAAIVHhi8Hhcrw3d+WvZUdqXIvXQAACosMHwAAQMmR4ctBoTJ8AACg8MjwAQAAlBwZvhyQ4QMAALNEhg8AAKDkyPDlgPYBAIBZIsMHAABQcmT4ckD7xvdmS2SvopM+muc2r9OrxG8Fvqq5cl7ZkZy6OrS+t27VJHT2Y0Ddb/fjZaL9eq7tmqa3+zXdTkW3u6/bvdDt6rwuT3u7XU63vHZMwZTqf7MVHq9BdWctNzfnA0DhjBTwca/a8dC+8d2uho8L7jFyK3E7kIdNkd22TiduxajWw3ruuMVJeXDg2tfSfXHr0iwvuZkVnXezZvGum5mS5SXdoFlZ8ra7GttuLFjxp60JRiHrB3qMGn2P0Vis/vbJFM5vW+vVaUDbs5bLcj4AIA0ZvhzQvvFFAdCCe1xc1X90uh0ulo9+oFsgEAW4t9znfjLAnbi7Vbddiyjuu+2uxLZrwcqjxqrcOXFBi5seVXcnG/Qh0/kAgDRk+HJA+yYnymwEH3w6+dmvYURdwp1pQPfvwK7iC5Fnfn06JbubRxEFuEGGs2eAeypblYpUdKpN6H54C0thRHG7qhtdrWYKrJe3m0HQl+xuTGYE07sjT/WceOV6Bo7xcs9sf9O6Zy/29Xxcl9ur1Pqcj+uu0mDq2nbieZsm3BU8yCjnA8DNRoYvB7RvAlzGy89sJLt3h/HEulW96ZHW1euaum91/dVeoqwf9Fmwp+tqXn02Xem6ka+10v20/Y113Y0R4GZ2f0m3m+gyjHUn9rf86WP55Tja6TBQalZbejyiTGBLFnddoNZhQdyuLLYS2cLqjvziSoS6y9VaVXm2ey4LDd1GcztspwV7us2aKxNOe3o+0oLNlp7fqp7f67Ldmcr78rDp16XTXkteVrbkjSsxNWOeDwA3mI3SBUrvpN3+Xd3NZ/TVarv9tZuPfKH/Y77QupK+1rqj9Tb/VSucT/pKn/vOzcdo+c91e6nPFcB3jdXU49JuNXS/GuF+ndTbnzfSDkxLj3W9c6y/rq+mHz99/e+iulSvbX5dl9h2etZn261f12dvki/0T2KvOlP3z9N7O8o/Dv1kLQcAQyLDlwPaN39io2XddH7mnvStinyy7uY9DzZFfrkM538+19dWu+sL6jwU+SksduO8OT6Xjz5Nu9jsvtx7fC7vgyTahR6/HtekuevXQhfy7mhFPk49F3U3Z6y+Mz0fiS7YYKrq+WjFz8dqo8f5rev5vc5CdkbLetM3em4BYF5xDV8OaN98sWDPQly/+9WmFQ3uRrXS6q4vmh64MjdG7l2Oq3o+El2wnelg6PNhwd7Lo8fyKFHXmh9nAsCcIcOXA9o3X96fizw6cAuDnIm8S7nY/82xXUgfzt97LPLj63D+pnv7+kgWNsOU2YPNFT0uaSMl/GydjTw9l5/Tin3f8q7h87OCcW+O/VSblbPzkVZhirOjHuf30A2UCNu6Fl0fOM8u9qVWscE7W5JymADcMGT4ckD75suiTrEPeZ23Eba9unR/rMZH3NqPIluI/MR1BS5vi3x0lDJAw9U79Qv79eN90qN0R3K6JS9be53jIus7elw+6xod+3b/M/nx8U4n0/bgwAZUJAZA2MjbjXif6fL2nshGvJxl35rn8dTs8vYL3W415XzYyN3EdoLzGx/Ba3V+IyduPywgPUwEmuFI4Xnr0r3QYNvewquNHfsZSQA33Ei3VrMM0DwHBbRvPPPevqwsEHu54xaS9IP9UfN6lKv9LMsHN2/W9H/Fz7Uw6LPu2YffiwYc+oR73bd++brIbkqG0H66JRk0Wr2dLkQNGoI6e4iVHYoFfBti8cdqoyXN7bQL4ibHfmYlNdhZbeixSmbCLDjaiB1rqZ/o8UuEJMHIWm9UrtX1QuTfgnV1PTauKzZZzuraPJZnlzvyNLbfNkK4mjgfXj1RQBm0eUnPr9fGrvYl67Iu46bcaoTHwX6PMAgOU4LUaynbTuWVG9KpnpeNw7qc6OsJ+ABwL10A5aIBVHfAd9OEQf/5DAJ+AMXANXw5oH3AtFzIq91eo4FvkNNjOZS67BHsAXDI8AEosO6u2k6XKgCggwxfDmgfMCndd70g2AOAbmT4AAAASo4MXw5oHwAAmCUyfAAAACVHhi8HtA8AAMwSGT4AAICSI8OXA9o3vjdbInsVnfTR2J0ybDl52y6ks7uQBMevpvO6bHcFseWu249NS+c+r9zrFQBmYaSAb95vu0X7xlOE26rdroaPC+4xcovfmQ2Ct0H3611ecjMr17eXM4t33cwsrDak1W5Lm1t/AcDUkeHLAe0bXxSwLLjHRbtfvk63w0UMooHdgj5EAfMtDfyCRwJmACglMnw5oH2TE2WkgoAlka2KRN2VnS7MU5Fn++7JiK7rlHFTryxZ1H1sU1BPymtfJbpMo9d0bfdC17nnOq/1u6W95609/r4k64q6ue2uE9+4MtHUq6s2CpiDjGnPgNnuyxp2v9b26TMHgCIiw5cD2jcBLkPlZ6SS3bvGAqSrPZHdtpt0/uWGezJiAduuyKOojE0tkaYGSslrAi1wW9TnonI1nX+mr11oXK9b0cDp/Cis79Fj3Z6+Rk7C5xZ2vDotmNM219zroulK13UCNN2/p7rO6mwm9iVWl3pwEK63smuuTDR13X1C67XjF+vC7REwAwCKj1G6KDUL+OSFyMM+XZVW5lZTAya37Hu+pcGSBlLGBjp8u9QdPFlmralB2tPtcDlWnwWTxxp0uTqs7M8aqFl7/PmkV/rcPX1NFIBFgWts21r3s8vr7Ub67c/csEEbn+mpaW5b7AkAmDIyfDmgfbPzUAMfy5j53ZvJrN1VShdoNH04D7tkzbsjkY9TRhc82HQzQ/pZ6z5PtC2azg9FfnLlImnbBgAgC67hywHtm60nie7NWJepk+wC7UwaME6zm3PF6x5OTnOdoQMAFAoZvhzQvnw9ORH5cOwW1Md1kfeJADDNvcfp5d54dQ3D6vvxtVsAAGCKyPDlgPbNiF0/V7vuko1YgHbH64a1wQ6y0d3Vm3z9sl0rp+X80bt2XV/z3C0Myer76ChlBK0N5qjEtzMMG7EcC0xtP7S+rv3LjFG6AFB0ZPhyQPtm6CwcJetfH2cDLJIDL6zbN3mtXzByN9Gl+8SN3o3KvNTlp3vuSReoRT+L0gnkDrWsFzjadXvRc3aN4aJuJ7Zdfd5G7gZduj3qDH6CRYPPX3b0Ued9UQDbqU/nrcu638AVAEC5MUoXGJcGYWmjZdEHo3QBYKbI8OWA9pXLq12Rjz51C8jubEeq3EsXAGaCDB8wJPudO+tijdw56e4iBgBgnpDhywHtKza77s7/+RSCPQDAvCPDBwAAUHJk+HJA+wAAwCyR4QMAACg5Mnw5oH3jIQMJAMBwyPABAACUHBm+HNC+8RQqw/dlReT3z9xCD1amc1uM37qVE3D6l9OpFwBQOGT4gIl7p0HessiVztY+F/lBH//xafBMFwv25F9F/uFvw+V/18Dsf+vj7n8Pl0fyRw3w/k7kV169AIAbjQxfDmjfeOY/w3dPAzz9HmU/0re+5Nal0cDsSgNCPyj7Kw30ak2RUw0aR/XlP4v8vW6bYA8A4JDhA6ZKg7rfX/bO8KWxrlj5gwaLGjgO6/KZyLu/Ge21AIDSIsOXA9o3nvnP8I1DA8RmbfSA7Z0Gin+mr/Wv3/tS6wQA3Ghk+ICpGibDZ9f+/Ubkb/5DpF9PcD8W6F1pwHhVvd5msO5f6OIFgBuMDF8OaN94ypnhcwM9/nyMYM9c/al7kMi61rmoQScA4MYiwwdMVZYMn5axUbV/rf8V/8qtGlWvbN6Xuv6TMYNJAEBhkeHLAe0bT7kyfBbsuVG14wZ75t5vRH44dgu+Wnewd7EvtUpFKpUtOXWrAADlNFLAt7a25ubmE+0bD+2bERtRGwR7icyb/RZf6s+yWHDoBmL0+tmWpafhz7r4AzWCUb+b4bzn4vWRnOnjamNH1sNVAICSIsOXA9o3nvnP8Nn1eC4ws67aq3+6DtT8u278Py39508i/zMq66b//T/C50dl1+yJbjeq74ffpA7Y+L5l4V5d9rbvhysAAKXFNXzAjXQqW5UNOW+0pEnABwClR4YvB7RvPPOf4SuA02M5JLsHADcGGT4AAICSI8OXA9o3HjJ8AAAMhwwfAABAyZHhywHtGw8ZPgAAhkOGDwAAoOTI8OWA9o2HDB8AAMMhwwcAAFByZPhyQPvGU5gMn93SrHMHjd+6lSmylhvGl1qXf1ePfqaxfQDAXCHDB0yD3Q/3/2xe39LM7pv7v/TxH5+Gy5Gs5TKxW7oti1zpbO1zkR/0sW89dm/evxP51b+m3noNAFAeZPhyQPvGM/8ZPg28/lMf/CBqSQOvX/1BAzy3HMhaLqt7GuDp97ddndaX3Lo+vvxnkb/XsgR7AFB6IwV8a2trbm4+0b7x0L4bwDKJixpYZogLAQDFR4YvB7RvPPOf4bsn8uf6cPouXAzo/NVvRP7KLQaylpuCdxrs/Zlu379+78s/uicBAGXDNXzAtNjACbuOLvLX+l8tLZDLWm4oGrz9/rL3NXwW6F3VdKpelwnW/QtdvABQQmT4ckD7xjP/GT5lwdPi2/B6umDS+f9MGQGbtdykXf2pe1DH+n9oWzRIBACUDtfw5YD2jWf+r+F7p8FUTQOoe27Z6Pyvmt2DNjKVm4LFv9DtbLoFz9UfRIj5AKB0yPDlgPaNpxAZvsWqm/H8mQZ3SVnLTdq932iweewWfLptBnIAQOmQ4csB7RvP/Gf47mkg1+MnWJKDNjKVi9jv5rkBFrGBHiOwn3+pNeMDNax7WVKyfgCAwhtp0IZlWOb5Q5f2jYf2TYIGZNGPIEdSB2NkLWfcDyWb2ttEV7BJqSuy+Hn6AA5/wEivMgCAwmOULgAAQMlxDV8OaN945r19AADMGzJ8AAAAJUeGLwe0bzxk+AAAGA4ZPgAAgJIjw5cD2jceMnwAAAyHDB8AAEDJkeHLAe0DAACzRIYPAACg5Mjw5YD2je9ivyaVSiWctk7dWgAAkIYMH4rtdEsqx5vSPlh3KwAAQBIZvhzQPgAAMEtk+FBsZPgAABiIDF8OaB8AAJglMnwoNjJ8AAAMRIYvB7QPAADMEhk+FBsZPgAABiLDlwPaBwAAZokMH4qNDB8AAAOR4csB7QMAALNEhg/FRoYPAICByPDlgPaNr3Mv3Y1DtwYAAPRChg8AAKDkyPDlgPYBAIBZIsMHAABQcmT4ckD7AADALJHhAwAAKDkyfDkggwYAAGaJDB8AAEDJkeHLQTEyfBeyX6tIpbavcwAAoMjI8KEv+4HjxlJTuJEFAADFRYYvB8XI8F07vyTHBwBAkY0U8K2trbm5+UT7AAAArpHhy0HRMnwAAKDYuIYP/Z1uSe1yR5rb990KAABQNGT4clCoDN/6gey1qozWBQCgwMjwoT8yfAAAFB4ZvhwUKcN3cXnu5gAAQFExSjcHjNIFAACzRIYvB0XK8AEAgOLjGj70dbpVkePNNnfaAACgwMjw5aAYGb7wXrob5w3ZIdgDAKDQyPABAACUHBm+HBQjwwcAAMqCDB8AAEDJkeHLARk+AAAwS2T4AAAASo4MHwAAQMmR4QMAACg5Mnw5udivSaVSCaetU7cWAABg8sjw5e10SyrHm9LmVhYAAGBKyPABAACU3EgB39rampubT/PePgAAgFkiwwcAAFByZPgAAABKjgwfAABAyZHhAwAAKDkyfEVgP91iv9dX25cLtwoAACArMnwFcHp8GDzW97blfjAHAACQHRm+uXchl+f6sNqQHX6bGQAAjIAM37y7eC1HZ2T3AADA6Mjw5aRzL92NsLu2l4vXR3JGdg8AAIyBe+kCAACUHBk+AACAkiPDBwAAUHJk+AAAAEqODB8AAEDJkeEDAAAoOTJ8mKk3WxqQ6+PuQbgMAACmjwxfTizw2avopI/muc3r9GrAzXLf7sdfh/5GPc7jertf0+1UZK+2L2/lQl7VdF6Xn5+6Ar7TrbBsMNV6tu3NVlTGpi1549aPI6gzaONgnX0asP2ZlbvYl2ed9fEpeZyHOh8AUEIjBXzcaWN8t6vh44J7jNwacDuN5W2R3RO3MCee1/QD1c0P8uBgttm9UY/zuJaXVsKZlSVZDufUqizedbMRC1o2zmWl1Zbdtk17clXtDn4sMPtGTlwZnfQ98M3IQd91wNOsNuSOW9vbqQbKFXnZ2rvefvtAHrhnr+VQru4dEzc9aqy6J69lPh8AUFJk+HKyvBQ+LrjHRfuM0ul2uIgJye04363Kgj4sVC2iuC+3gnhjpSvQfPv6SBZOmvKws35dnrSq8n7fT/Odyvvzhjw68G63sn6ggc25NGPlsrovD5thcPR02x2YPt5s7cqiBaT+9lPMvNz9bXna9dyFvDtakY+TqzOeDwAoKzJ8OYsyDMEHkE7X2QdHP8+fuW5Im57tu/WRU/ecn2WL1ukU67Ly6orqibo4k13EnfU9njevdJv23IczkZeJ8sluyahsMA3ojo6VTdaV2F+/nf265wYeZ3OxL7VKJbjl3VafuoaxsBRGFLerGmWuVrsCzZ9a123ruK9B2NFrL2uqQWBzO73N06bH5H31hReQ9pBXuaSL1/LjymZKtjA06HwAQFmR4cuLfshbxsHPMCS7HYMATdfV2iK7bqppgLC34Z436+H6WLecW/eo4ZYjuq2n0Xqtx4K/RX0Myup2/IDpia6Lthk9Hwsq1cNm+Nwd/ex8lCif/KCOyg7qjrYA7movXteV3zZvf//Na/+uPv6ix6WrizPLcZ4GDdoWkl2Gse7EkHU5X33vFnxnLfnJzaY7lW93VqS2nTjQE2YZSNEgKXYdXUo0nFe5pCBjuplM76mM5wMAyooMX15c8BVlIuzatqfbbsF59VkY7PnZCivXFciN4JfDsO4oMLNrA5+kfE5G7HlLjvUPQsZjA1JEA8JkOyz4lF19PlwMnYl8pEFeJ7DUx1/rcXmfjAkyHOeO+9vSbLfFBq4P6G3MYF3bfd1Vu7zdTO2aXP70sQaq3kCNYADHhnxwi+nsGjzr7ky77m0Kjrfk5dFjDerDbuBH1d304Cuvch3WnZuSMQ1kOx8AUFZk+ObYlU5pXU7RdWnjWNDgqF+w0Bnd6k3nGmRNk31Yd1175Xys0eY7v2t3VeReFOwVmV2H1nosP1ZdFmtDv7C0W7Ki+5fOgr2qXO351/1Nz0+tM/mgXw7WvC5lC5YeVS9j2dS8ysVYd648Lsf7AgAmjAwfunR+K68dn3oHIRiLBX0uixWOQv1eg/2068ts1KoFe+2+2dhJCq51q3dfE/dT60h+9gLwvMrFfN8Sefwp3bQAkIIM3xxb1CmtC/XtpZsZwAYEjOL9ucijGf50SuTe45QuWcfadFMyN2/3d0X2koM0LNgLR63OKtgz1uW8cHicklWLj3DNq5zvzfG5fPTpBN4kncE7WzZGCABKgQzfHHv4QqSZGChh17m93HELHgsOv/U+nWyk6zeHbmFIVles+1TnbYBHry7dZPnox6F7dr31YNcJSsrAC8s4yp4+Hy5OT+eDfnKjdIdlgxTsd+diQZ2261kQ7CW6cU+35Fnqz7KEv19nXcTpzw/h/rb8unEu33gHxNr4jSSyb3mV67CfrplMd+7F6yO7RFRWGzs2RggASmGkW6tZBm2eg6p5b99Q9PMuNiq3LrK76datijxqukDIgrKqyC82r+6ciHxyGQaHdr2eDVToFSyaNX0X+B+kNlrWHzhgz/+sQaQFfSv+YAmT2HasXarfdpNlu+pSUfsDieMRtcUC3CggjZUfhgV81Z3gw75+MomBG4MFAd6OF0nbDwknN2wDOTbSo/eFRkv3NRnlWMAXDvxIfz68DjA1gF9t6PlIZhct6K5cf4HoUcbkVS4Ifi93UvZ1eKe6zY3Dupy0Dwj4AJQG99IFgI5T2dJg+VwD5eaUf/IGAGaJa/gAIHJ6LIdSlz2CPQAlQ4YPAACg5MjwAQAAlBwZPgAAgJIjwwcAAFByZPgAAABKjgwfAABAyXGnDaBA7Iea92r7sbuvjGPS9QEA5hMZvpzY7cLs9mN7dtswZXe2sOVXY94Jq5fodmfR9ubVrI9LxO7oYLci2wtu5RXdmqw29e3eNEGAacc2CDLtjh/hcX9+fQc1AMAUkOHLye1q+LjgHiO9bgw/LrtP7W5Lt+eW8/A8cV/gNLM+LpHb1dXgcaF6N3gMpd2o34KUraHvEzwpy9tN2e11e7ERTLq+QZaXVsKZlSVvm6uy6B92AMDEkeHLyfJS+LjgHhct3tDpdrh4Y+V1XKJAZGHJIry7brvVG38+Ju5uNfjSEQbW9+VWcNjTAmsAwCSR4ctZlNkIPvh0Ssu0vKq5bk6bLEt2KvJs3z2p8531blVnnU69usqirlKbOnUl9N1uxNtWNCWzX1E9H85EXibK9uoyzXJc5GJfapWKVHQKemLHFmWaXCASy0JF3b5VOT87lG+CLt/rKX6coy5hnYKGXXddxq+X89ZHU4/r6Tpdzr3K6LF4Fjxv2cd4vc/2uw/ypOuL7XNU5nQrXE6pPwysXWZ1lcAaAKbOfpZlWG/evHFz82ne2xdotduf69H/2i1+XdflhlvwfLXabn9x4haMzv9OX5cs+4WW+87NR77TMrHX2jZ1O1/o67/S+UjatjNt19Ylt+v2y68/ktbGLhmPS6DVaGu4YD8r1K77bR2F1vW51L3tim43ZSe0gV+tXpfr66Te/l29rsdbro+lrkuv17HXeO3oYu1cbfQ4jta2VX3e256epC9kNfV8BCZSX/e64PjZa7v2NV72u8aqHqNxTx4AYBD9aMU8s8Cr54e1J3PA1yMYS24ny3atTK/A5AsN1JIyBXxzb8iAr1+w1cPX9XECND84c/oFmROoz4K2rjKqd9AMAJg1ruGbcw+bIlfVbN2gmdS1zpTrpe491u187xZUlu1enemx9p73pw/ngwdo3Aj1vdTjHemMWvWmbw7dkyOpy8frbnYiBtV3Ie+OVlLLPNjUNxsAYC5wDV8BPGmL7HqTBWKz+BmLLNtdS5TpTBowzmrkZ1FZsPfy6LE8arf1mF1Pa8RJAIAJI8NXQE9ORD4cu4U+fmq5Gd9h96AK8+7oeqBEL8ntfqyByfsZBJ7lFGbG1mb4kyjTcV/uPT5PfR+8OR4rVRkMHAkH5WzZ2CAAwBjI8M0z/ZSLjb513mjQdWfTLTiLOn3rfSrayNjUrsFVkWYlHvTZjx3/+Njr6s243QcH+s9GShdzj9dbG995ZaMfgx75N+0mPko3CxvBexgPcILRqMP+SHNKPW6k63hdurO3vL2n74P4bxNa9rJ5br9tM7qL10dypo+rjR2ZaC81ANxAFbuQz81nZhm0eQ6q5r19mVngpAFV0kJD5Om2W4hosPGsKvKLW7xzIvLJpcjLnbD8r3Wdzds1fLv66Jftqm+Y7Sr7iZcPbj6gn/OP0rp0E23sWS4rC/iqO0FQUD9py8HMogILzDa8fa7LWvtAHrilIADcSI+2V1pN75o++7kT+5kXt+iev9UIg747uk9PbJ961mfctu1nVPRYXJ//8LX28yudALJ+Irt2kCZdn0mUD57bPJZnlzv6nulzEWMfp7qtjcO6nGh73FYAACMaKeADgIE0sBw94DuVLQ2qzxstaY4YMAIArnENH4ApuJBXu+fy0acjBmunx3Ioddkj2AOAiSDDB2ACkt3TXpc0ACB3XMMHAABQcmT4AAAASo5r+AAAAEqODB8AAEDJkeEDAAAoOTJ8QEFd7It8po/NlB/D9mUtB0wD7z9gPpDhy4ndzsxuK7anj8buVmHLw92ea3h2y7Vgu9620+TVPruTw15Fp+BeaeGtxmK3LdPVukp0ld2440Zr7Og5yfAhmrUcJoj3aUeh3n96smp23nSyv0A3irfvE9//Gf5/sC8Y0T5MfD/GZLecDD7favvyVo/EKz3gtvx8Ro3kXro5uV0NHxfcY+TWlH9n9mFTZLet04lb0UNe7btdDe+/ulC9GzyGVq63uy5iOem6W8xiK+Mfmazl5oH9UTtvBIejr6zlcE3/Jo//ITHC+7SMZvn+m8h5078zTT1vjSFuA50MMGZ3X+/J2tK/9Xu67/a+bbf0M2KSfw/t/4PW2Tmseoz8Y6bxT8DOob/eDmVynU1R+S76gqpuJ9iHaexHiuT5t6nXe2B5aSWcWVnybim6Kov+x90UkeHLyfJS+LjgHhftf4JOt8PF3OXVvug/xMKSRXh33Xarc3Nc5sXro2xZk6zlgGko+/vvdCsRYOgkG8UL+ixosf3oBOYW+O5p4Dut/YgCQP373tJjFnX3bzfj6609wTqdP9FvTw13rHtdHrC/q+UO3ILR/XjxeIr7oe5rW4Jzb+3W5ZMTkcPj8Lkud6uyoA9hQuO+3Ao+7ryExpSR4ctZFNkHJ16nTtSvb9CgS1W/nbx1qzrrdIqlgPXryzO3/pn75hN1wfbrts2iZ/t8+teipl9rKjpN5g9d9I3H/YeIfRvy6H77XRDJbUffDA/P9I+ZV86mfe8rX6ZyWnewzn1b3PLL9TjG9mHQKaPTqbW3R9movp7fXH3alh09LgOzJinl/G+jyePlt/e//tfJlvOPd192jNxrbOpU2Wu9Sh7nWDu816XV5R/vqJ4dfR9suOejqVPnEPX5YlkK3U6XxP7ZlPmY9dCVedDt2j4m6+15/Lw27Ud1Jd7/fd+vWs+o77+ojV3ZHbd9X6bz5sl6XIz//zxtX/XzW+qbbsE58D/wdfvJbZnkfo17rsdlgXnwHdunf4PPk4GLtjPr+zTL38i8JN/zsXZ6+zjM+/7itf5j2Wx9wzfOg1PfU5jQcD1aM0xokOHLi/5nskjfj+xj3af6prGu1ztuMeDWPdI3VYzW8TRar98yLPhb1MegrNY50vUBg9o3LcE3oPg3nnj3rmPBWaIL4ly/Wfu7Gn0zrLtvi0E5N/m3aM1UTo99UEZnP9Pj63+rb2k7kn/Q7A/Krq6PygRdC7qszR6bfYu166IGSStn30ZtH+yb8oH/SazW9Ztx27r69Tj8X/9tsuUy31JXyzW1Ln2JnOhx61Rp63U52la03j44Y8dZp6rud+cPsntdrIvOrQva5gna68ratv06O/s2RH2RhraxtXddV9f7xT5gdF3nveyVSwtYsrCgJpl5svo2Dl0Bp+/x8/Z1RwMC+7/ReqzP6/tfdF+t7Iq+v3p94I/z/oveL9H/zc6kx9G27x+WTOfNyXpcjAWPftm0fbX9SW7D/nZ23h76nL3W2mb73Na2mmC/3L7acbW/M7EAKW1K/I2ZuSHep7YvXX8jdZrE379+tvX9sZsIxl5rO3aS50gF58Pbj+B9ae/XEd/39trHn4bzn2r547T/u/eX9PMt0YXbK6ExDTZKF/Pri9V2+zs3H/muoetP3ILH1v9Oz+jXbrkvff3v6m6+gOq6n8lD0NL9r6ccl7oew5ab7ydLOdtuI6VQctsnemzT2jI2rVOynLc+5Rq6n73aZu1e1X0xky43jLTX2TGO7ZNus1fd1ia/ScnlQI/Xp5ZNyFqfvV/Sjo3//rD5tPeUaehzWd67MfqCVf849ZLS3oi/f7F91Rn/HPRse6Kcz+ob5/3Sa5sDz1vW46Ksrq5taOWD2mbS/kZ0vXeV/x7IW+qxSxyvrO/Tvu8J3U7nKavfX470WN9v+z4r54dyWY5x2nsydkys7VpvpKstafvmlZ8XZPhKZqEh8sDNl5p++0rJ+02fbjctW6Vf3OT80i0oyzpYpsT/hj5qtsY3TnYvYt8+k11O0bfVy/PgC2dg0uWGsW5t18k/ZLY//j6d6jajb9RJPb9hz5plCVKyC+ub1+8XO0Y71ev3iT/tHIp8HxbLzl6g9Q0yzeM3ifef6ep+1SktG5dJxuMS6eriHCDK0Flmy+9BMPf1OK9quzuHVPd3V5c3U94bA7lj1mvqbCNruYyyvk+tXOqx8zOfU2Lvl7SMdb99tSy3ZeC7MrVDsP9Lq/q+7uy2zjzW45DMAuaNa/iAKUl2R8W6Gkehf7Xsmqjkh0mXAeUsOBX9Y2R/i+wPVb0ucmTXn+iKo7PrD6FJlxuKtn1P64m6Z+wP+aEuD9z3gkp2L/nTGJ9D+ZjQ+y/ofnVdav7xsIv35462/Vyjmah7tot7P0dBtF3vdabL/rnN3KWrL/KPR3Lq1Jm13BDm7n2qx9P/m5o2SKjflxe79OZInx8n2DPHGvCe6Rcc/3zZNaXB+3qOkOEroJ/0Px1yov+JX9snVcLF5eBM1vYL/Uf/IKW8PJNJZPcC+setrvvxvTZEi8rBpu6WtUu/op/5mdNJlxuSn+VLZveMZcl6/UG1P/yDAk07Z5OUWl+P94sFOn6GdKIfDHbAM7zPxj1+vUzq/WdtONEvTROL8TMel5FoI5sD2mrH+1B32Laf9n4+SAmiYpO7/m8a7D14mTgwFpSuaJsjWd+n9kMLyboCdn7dbEAPlhZNp0+MdN71dcm/N8EXjBT2hWJDH8f9QfDoy2jaOVuZ1vttRGT45tyiTt96307sh5O/GbVLY1r0HT/ZUbqTZb04/oeu/Qe1b2DJpmYqpx9IR1owlqrX+c80CO98S9RlG+WVrD8YxaV/NNP+kPUb/RXQOo/6ZE06MpazwWG7n7k/6NpuG+/zmX36Jv7QTrpcZOD+Gn1hkOXT93xqdk+381j/oCa7Tey82bf26HQY+xDyL+a2b/bVHkGJlY1lBHTe2upvJ3N9Ke8Xa5990ETvF7vw3/aj6/+OvibtfWT6Hj87btq+aspF/va6zmuGOH6ZaV2Tev91nQdl7e/VpTvwvGU9LiOwbkHbVt+BFW4/X+t2DnX/Mw9kmgF7D7b0fPhvhYa+N/zLEbK+T+1yFhukEStm58Le9Ak7+j5Lno99bcfjfl8Y+vhUt5v8CRb7ApL88mLv8WBQiR9E237oefSPQRb2xSQ5Ujuyqe+3tC98uXHX8g3lzZs3bm4+zXv7htJqtz/Xs2SDMWyywRrR4IzP3QXE0XLa5A/g6Ffud6v6vCs3tFajrX+/9PuMTP8iZLs4VtsbTdGFs3aBbbSu68Jqu4DWe03s4lpfhnLRwA67MLtTTqfYbifriaY+F/FG9fW6KNwuEs5ybLOW01MWbC8qGi0nXzvpcpFB+9vhjmW/fUqei17H2S8XbFfr7FW+7/l1+tYXzae9X3q0z38PR1Ov3Y7q63f8onPgT2kXvSf3tdO+xPs4OAeJ/YoukI/Oz6Tff8ljYu1PbtOX5bz1PS5p+6yibQZTdHw8nXamPOcb9P8iV9qmzj7qlPZeMZnep4njGLxfvHV++eT5GPQeSE7J/wPJ8mnHumediXbaFLxep87ztui/H7yps6movJvm5XxzL11gCHY3jp1JdjNlYd889Vvvi0HbzVquSCwzoN/QW2Xap7Iq4/sPKBGu4QPmnX56Dro+KJC1XIFYd0x9jwCiEEr4/gPKhAwfkEXKNSixHwbGxNj1cF3XadlF0VO8aB0Aym6kgM8yaPM8MGLe24fR/Re7MhoAgAL5/+Ygt0aGDwAAoOS4hg8AAKDkyPABAACUXCkzfAAAALhGhg8AAKDkSpzhu5D9WkUqtf2hb5UCAABQJqXP8F3s16Sx1Ly+zykAAMANcyOu4Tu/JMcHAABurpECPn7UGAAAoDgYpQsAAFBypc/w3V9acXMAAAA3U/kzfOsHsteqMloXAADcWOX/Hb7TLald7khz+75bAQAAcLOUPsN3cXnu5vrQoLBS4Tf7AABAOTFKV50eHwaP9b1tIQ8IAADKhlG6ciFBEnC1ITv8ODMAACih0mf4vm+dycpSn7zdxWs5OiO7BwAAyqvEGb7wXrob5/0zdxevj+SM7B4AACix8o/SBQAAuOG4hg8AAKDkyPABAACUHBk+AACAkiPDBwAAUHJk+AAAAEpN5P8H/Gx3Qp/nvpUAAAAASUVORK5CYII=;" vertex="1" parent="1">
          <mxGeometry x="440" y="300" width="636" height="451" as="geometry" />
        </mxCell>
        <mxCell id="Bwvvb87Q9qxr3h32M2CW-6" value="" style="rounded=0;whiteSpace=wrap;html=1;fillColor=none;strokeColor=#d79b00;" vertex="1" parent="1">
          <mxGeometry x="130" y="170" width="170" height="32" as="geometry" />
        </mxCell>
        <mxCell id="Bwvvb87Q9qxr3h32M2CW-7" value="" style="rounded=0;whiteSpace=wrap;html=1;fillColor=none;strokeColor=#6c8ebf;" vertex="1" parent="1">
          <mxGeometry x="130" y="210" width="210" height="32" as="geometry" />
        </mxCell>
        <mxCell id="Bwvvb87Q9qxr3h32M2CW-8" value="" style="endArrow=classic;html=1;rounded=0;exitX=1;exitY=0.5;exitDx=0;exitDy=0;" edge="1" parent="1" source="Bwvvb87Q9qxr3h32M2CW-6" target="Bwvvb87Q9qxr3h32M2CW-3">
          <mxGeometry width="50" height="50" relative="1" as="geometry">
            <mxPoint x="550" y="270" as="sourcePoint" />
            <mxPoint x="370" y="100" as="targetPoint" />
            <Array as="points">
              <mxPoint x="370" y="186" />
              <mxPoint x="370" y="106" />
            </Array>
          </mxGeometry>
        </mxCell>
        <mxCell id="Bwvvb87Q9qxr3h32M2CW-9" value="" style="endArrow=classic;html=1;rounded=0;exitX=1;exitY=0.5;exitDx=0;exitDy=0;entryX=0;entryY=0.25;entryDx=0;entryDy=0;" edge="1" parent="1" target="Bwvvb87Q9qxr3h32M2CW-5">
          <mxGeometry width="50" height="50" relative="1" as="geometry">
            <mxPoint x="340" y="226" as="sourcePoint" />
            <mxPoint x="480" y="146" as="targetPoint" />
            <Array as="points">
              <mxPoint x="400" y="226" />
              <mxPoint x="400" y="413" />
            </Array>
          </mxGeometry>
        </mxCell>
      </root>
    </mxGraphModel>
  </diagram>
</mxfile>
